<?xml version="1.0" encoding="UTF-8" standalone="no"?>
<!-- Created with Inkscape (http://www.inkscape.org/) -->

<svg
   version="1.1"
   id="svg2"
   width="1000"
   height="666.66669"
   viewBox="0 0 1000 666.66669"
   sodipodi:docname="chatnow.eps"
   xmlns:inkscape="http://www.inkscape.org/namespaces/inkscape"
   xmlns:sodipodi="http://sodipodi.sourceforge.net/DTD/sodipodi-0.dtd"
   xmlns="http://www.w3.org/2000/svg"
   xmlns:svg="http://www.w3.org/2000/svg">
  <defs
     id="defs6">
    <clipPath
       clipPathUnits="userSpaceOnUse"
       id="clipPath96">
      <path
         d="m 2659.66,3061.04 c 2.18,71.05 -38.78,133.26 -42.3,204.2 -2.18,43.91 4.66,89.54 28.03,126.78 60.86,96.97 225.33,93.03 279.21,-8.27 44.65,-83.97 21.36,-246.46 -78.93,-278.08 -15.36,-80.3 -17.49,-147.11 -9.57,-213.23 0.41,-3.37 -0.44,-7.11 -2.81,-9.53 -2.19,-2.24 -5.55,-2.75 -8.66,-3.14 -50.11,-6.21 -101.48,-12.41 -151.79,-4.72 -27.84,4.25 -40.88,3.7 -36.88,31.34 7.41,51.21 22.1,102.81 23.7,154.65 z"
         id="path94" />
    </clipPath>
    <clipPath
       clipPathUnits="userSpaceOnUse"
       id="clipPath174">
      <path
         d="m 6107.95,3150.5 c 1.13,34.56 6.05,70.12 14.92,102.16 7.88,28.44 17.71,55.2 21.82,85.15 6.68,48.61 0.04,129.8 -47.08,157.77 -14.68,8.71 -31.37,13.29 -47.84,17.77 -17.5,4.76 -35.01,9.52 -52.51,14.28 -15.99,4.35 -32.25,8.74 -48.81,8.33 -16.57,-0.39 -33.78,-6.25 -44.18,-19.15 -7.34,-9.1 -10.64,-20.72 -13.6,-32.03 -24.26,-92.7 -54.26,-199.37 3.12,-286.36 13.85,-21.01 30.88,-26.52 35.45,-52.79 4.19,-24.08 0.91,-49.53 -9.74,-71.56 -5.47,-11.32 -10.61,-19.87 -21.62,-24.73 -3.98,-1.75 -40.44,-8.87 -42.51,-6.8 30.37,-54.06 79.46,-104.8 141.35,-108.57 13.15,-0.8 26.35,0.58 39.34,2.81 29.64,5.09 60.38,14.91 85.44,31.25 13.03,8.5 63.09,58.79 78.85,53.54 -18.14,6.05 -36.49,12.18 -52.7,22.35 -16.2,10.18 -30.3,24.95 -35.82,43.27 -2.41,8.02 -3.12,16.45 -3.55,24.81 -0.65,12.53 -0.75,25.44 -0.33,38.5 z"
         id="path172" />
    </clipPath>
  </defs>
  <sodipodi:namedview
     id="namedview4"
     pagecolor="#ffffff"
     bordercolor="#000000"
     borderopacity="0.25"
     inkscape:showpageshadow="2"
     inkscape:pageopacity="0.0"
     inkscape:pagecheckerboard="0"
     inkscape:deskcolor="#d1d1d1" />
  <g
     id="g8"
     inkscape:groupmode="layer"
     inkscape:label="ink_ext_XXXXXX"
     transform="matrix(1.3333333,0,0,-1.3333333,0,666.66667)">
    <g
       id="g10"
       transform="scale(0.1)">
      <path
         d="M 7500,0 H 0 V 5000 H 7500 V 0"
         style="fill:#ffffff;fill-opacity:1;fill-rule:nonzero;stroke:none"
         id="path12" />
      <path
         d="M 1175.86,737.422 H 3653.58"
         style="fill:none;stroke:#130a0a;stroke-width:10;stroke-linecap:butt;stroke-linejoin:miter;stroke-miterlimit:10;stroke-dasharray:none;stroke-opacity:1"
         id="path14" />
      <path
         d="m 4757.29,737.422 h 641.97"
         style="fill:none;stroke:#130a0a;stroke-width:10;stroke-linecap:butt;stroke-linejoin:miter;stroke-miterlimit:10;stroke-dasharray:none;stroke-opacity:1"
         id="path16" />
      <path
         d="m 4087.64,478.18 c 200.7,0.351 401.39,1.23 602.08,2.629"
         style="fill:none;stroke:#130a0a;stroke-width:10;stroke-linecap:butt;stroke-linejoin:miter;stroke-miterlimit:10;stroke-dasharray:none;stroke-opacity:1"
         id="path18" />
      <path
         d="m 3847.18,478 c 13.88,0.012 87.77,0.012 101.67,0.02"
         style="fill:none;stroke:#130a0a;stroke-width:10;stroke-linecap:butt;stroke-linejoin:miter;stroke-miterlimit:10;stroke-dasharray:none;stroke-opacity:1"
         id="path20" />
      <path
         d="m 3071.56,480.809 c 174.24,-1.2 348.49,-2.02 522.74,-2.45"
         style="fill:none;stroke:#130a0a;stroke-width:10;stroke-linecap:butt;stroke-linejoin:miter;stroke-miterlimit:10;stroke-dasharray:none;stroke-opacity:1"
         id="path22" />
      <path
         d="m 2724.51,478.602 c 82.96,-1.27 165.96,-0.622 248.88,2.207"
         style="fill:none;stroke:#130a0a;stroke-width:10;stroke-linecap:butt;stroke-linejoin:miter;stroke-miterlimit:10;stroke-dasharray:none;stroke-opacity:1"
         id="path24" />
      <path
         d="m 715.418,1010.31 c 113.16,-105.521 270.117,-148.568 422.272,-176.65 121.89,-22.48 244.69,-37.469 368.01,-47.43 h 1489.01 c 588.72,10.512 1177.57,15.668 1765.89,0 h 1275.33 c 52.58,10.372 104.62,23.629 155.9,40.61 282.89,93.652 522.87,315.43 569.07,616.88 49.04,319.96 194.91,621.52 226.02,955.11 58.01,621.86 -98.51,1312.23 -542.95,1682.1 -461.62,384.18 -1087.63,330.79 -1660.13,334.33 -133.78,0.83 -267.46,6.96 -400.97,15.21 -622.45,38.46 -1247.38,125.81 -1871.5,67.43 C 2074.33,4457.02 1620.4,4330.93 1252.32,4079.02 1115.04,3985.06 1003.62,3878.66 913.164,3760.9 725.352,3516.42 627.934,3223 577.133,2890.41 523.742,2540.92 498.555,2187.13 501.762,1833.6 c 2.488,-274.84 -5.586,-618.85 213.656,-823.29"
         style="fill:#c7ecde;fill-opacity:1;fill-rule:nonzero;stroke:none"
         id="path26" />
      <path
         d="M 903.684,789.359 H 6591.19"
         style="fill:none;stroke:#130a0a;stroke-width:10;stroke-linecap:butt;stroke-linejoin:miter;stroke-miterlimit:10;stroke-dasharray:none;stroke-opacity:1"
         id="path28" />
      <path
         d="m 1553.01,3519.23 146.55,-146.55"
         style="fill:none;stroke:#130a0a;stroke-width:10;stroke-linecap:butt;stroke-linejoin:miter;stroke-miterlimit:10;stroke-dasharray:none;stroke-opacity:1"
         id="path30" />
      <path
         d="M 1699.56,3519.23 1553.01,3372.68"
         style="fill:none;stroke:#130a0a;stroke-width:10;stroke-linecap:butt;stroke-linejoin:miter;stroke-miterlimit:10;stroke-dasharray:none;stroke-opacity:1"
         id="path32" />
      <path
         d="m 6604.19,3274.28 146.55,-146.56"
         style="fill:none;stroke:#130a0a;stroke-width:10;stroke-linecap:butt;stroke-linejoin:miter;stroke-miterlimit:10;stroke-dasharray:none;stroke-opacity:1"
         id="path34" />
      <path
         d="M 6750.74,3274.28 6604.19,3127.72"
         style="fill:none;stroke:#130a0a;stroke-width:10;stroke-linecap:butt;stroke-linejoin:miter;stroke-miterlimit:10;stroke-dasharray:none;stroke-opacity:1"
         id="path36" />
      <path
         d="m 1319.45,3840.21 146.56,-146.55"
         style="fill:none;stroke:#130a0a;stroke-width:10;stroke-linecap:butt;stroke-linejoin:miter;stroke-miterlimit:10;stroke-dasharray:none;stroke-opacity:1"
         id="path38" />
      <path
         d="M 1466.01,3840.21 1319.45,3693.66"
         style="fill:none;stroke:#130a0a;stroke-width:10;stroke-linecap:butt;stroke-linejoin:miter;stroke-miterlimit:10;stroke-dasharray:none;stroke-opacity:1"
         id="path40" />
      <path
         d="m 1882.94,3891.17 78.47,-84.75 120.88,188.65"
         style="fill:none;stroke:#130a0a;stroke-width:10;stroke-linecap:butt;stroke-linejoin:miter;stroke-miterlimit:10;stroke-dasharray:none;stroke-opacity:1"
         id="path42" />
      <path
         d="m 4235.23,2617.75 78.47,-84.75 120.89,188.64"
         style="fill:none;stroke:#130a0a;stroke-width:10;stroke-linecap:round;stroke-linejoin:miter;stroke-miterlimit:10;stroke-dasharray:none;stroke-opacity:1"
         id="path44" />
      <path
         d="m 5996.53,3941.86 78.47,-84.76 120.88,188.65"
         style="fill:none;stroke:#130a0a;stroke-width:10;stroke-linecap:butt;stroke-linejoin:miter;stroke-miterlimit:10;stroke-dasharray:none;stroke-opacity:1"
         id="path46" />
      <path
         d="m 1127,793.5 114.47,368.58 417.96,1.41 39.56,-368.58"
         style="fill:none;stroke:#040606;stroke-width:20;stroke-linecap:round;stroke-linejoin:miter;stroke-miterlimit:10;stroke-dasharray:none;stroke-opacity:1"
         id="path48" />
      <path
         d="m 2945.46,800.301 134.22,409.129 423.35,-22.52 28.54,-388.578"
         style="fill:none;stroke:#040606;stroke-width:20;stroke-linecap:round;stroke-linejoin:miter;stroke-miterlimit:10;stroke-dasharray:none;stroke-opacity:1"
         id="path50" />
      <path
         d="m 3593.45,1032.23 h -711.4 c -35.37,0 -64.04,28.68 -64.04,64.04 v 1053.27 c 0,35.37 28.67,64.04 64.04,64.04 h 711.4 c 117.31,0 212.41,-95.11 212.41,-212.41 v -756.52 c 0,-117.32 -95.1,-212.42 -212.41,-212.42"
         style="fill:#5ab499;fill-opacity:1;fill-rule:nonzero;stroke:none"
         id="path52" />
      <path
         d="m 1060.95,1633.61 c -1.13,33.6 -161.712,676.14 -215.845,891.9 -10.964,43.71 0.879,89.93 31.469,123.03 l 269.726,167.81 c 30.02,18.44 28.74,-24.89 37,-59.15 l 238.05,-987.61 -360.4,-135.98"
         style="fill:#4a927f;fill-opacity:1;fill-rule:nonzero;stroke:none"
         id="path54" />
      <path
         d="M 3106.58,1622.91 H 1413.89 l -296.21,1119.94 c -11.2,42.38 20.65,83.93 64.49,84.1 l 1514,10.36 c 98.59,0 183.44,-69.68 202.62,-166.39 l 207.79,-1048.01"
         style="fill:#86d5bc;fill-opacity:1;fill-rule:nonzero;stroke:none"
         id="path56" />
      <path
         d="M 3327.43,1253.8 H 1375.38 v 457.3 h 1952.05 v -457.3"
         style="fill:#5ab499;fill-opacity:1;fill-rule:nonzero;stroke:none"
         id="path58" />
      <path
         d="M 3311.93,1032.23 H 1375.38 v 265.93 h 1936.55 v -265.93"
         style="fill:#5ab499;fill-opacity:1;fill-rule:nonzero;stroke:none"
         id="path60" />
      <path
         d="M 3409.33,1298.16 H 1819.98"
         style="fill:none;stroke:#040606;stroke-width:10;stroke-linecap:butt;stroke-linejoin:miter;stroke-miterlimit:10;stroke-dasharray:none;stroke-opacity:1"
         id="path62" />
      <path
         d="M 3742.04,1032.23 H 3468.9 c -35.24,0 -63.82,28.58 -63.82,63.82 v 935.59 c 0,100.48 81.46,181.94 181.94,181.94 h 36.89 c 100.49,0 181.95,-81.46 181.95,-181.94 v -935.59 c 0,-35.24 -28.58,-63.82 -63.82,-63.82"
         style="fill:#70ceb1;fill-opacity:1;fill-rule:nonzero;stroke:none"
         id="path64" />
      <path
         d="m 2924.47,887.699 c -0.34,-0.98 -0.68,-1.98 -1.01,-2.969 -9.9,-29.742 -15.24,-60.828 -24.5,-90.781 15.86,-1.699 30.95,-9.738 41.18,-21.969 3.94,-4.699 32.97,46.469 34.6,51.18 -6.4,-18.461 8.08,-48.859 12.15,-66.879 4.55,-20.179 10.62,-36.582 23.26,-53.652 25.49,-34.41 63.43,-56.859 100.27,-77.238 38.65,-21.379 80.72,-40.86 124.84,-38.961 6.89,0.312 14.26,1.351 19.34,6.019 12.09,11.11 2.36,30.93 -7.59,43.981 -32.34,42.449 -68.4,83.769 -88.84,133.172 -46.12,111.41 -58.6,163.507 -91.17,199.64 -31.53,34.978 -44.8,-1.801 -86.15,20.219 -1.74,0.93 -3.76,1.879 -5.59,1.148 -1.46,-0.57 -2.33,-2.05 -3.08,-3.418 -17.82,-32.23 -35.73,-64.679 -47.71,-99.492"
         style="fill:#040606;fill-opacity:1;fill-rule:nonzero;stroke:none"
         id="path66" />
      <path
         d="m 3115.83,992.859 c -6.61,-35.14 -11.84,-70.91 -5.81,-105.988 2.19,-12.66 5.83,-25.5 3.59,-38.152 -3.33,-18.75 -23.17,-29.981 -41.04,-26.008 -49.66,11.059 -101.29,55.359 -111.06,107.219 -5.08,26.929 6.28,59.629 6.15,88.1 -0.16,38.5 -3.6,76.92 -2.92,115.42 0.5,27.66 3.48,56.47 18.19,79.9 24.68,39.27 91.35,43.1 129.2,21.58 30.4,-17.29 33.46,-61.8 32.36,-92.71 -1.64,-45.9 -17,-89.35 -25.8,-134.5 -0.96,-4.94 -1.92,-9.892 -2.86,-14.861"
         style="fill:#ef7888;fill-opacity:1;fill-rule:nonzero;stroke:none"
         id="path68" />
      <path
         d="m 2917.18,1146.49 c -0.56,6.88 -0.91,13.77 -1.23,20.62 -11.21,235.06 -6.24,470.9 14.82,705.28 6.25,69.61 -143.42,272.18 -59.92,296.29 16.83,4.86 189.76,-15.03 207.25,-16.08 35.56,-2.15 71.68,-4.88 104.95,-17.57 164.3,-62.69 129.48,-311.33 112.02,-445.74 -24.87,-191.51 -50.01,-395.13 -109.92,-579.02 -7.46,-22.9 -17.2,-47.48 -38.21,-59.22 -11.08,-6.19 -24.01,-7.99 -36.64,-9.2 -60.54,-5.8 -152.31,-13.64 -181.97,53.92 -7.01,15.96 -9.74,33.26 -11.15,50.72"
         style="fill:#ffffff;fill-opacity:1;fill-rule:nonzero;stroke:none"
         id="path70" />
      <path
         d="m 2439.14,2912.83 c -94.94,-44.64 -119.91,-127.6 -147.65,-223.07 -24.81,-85.41 -31.31,-175.28 -55.76,-260.8 -29.62,-103.62 -84.61,-197.77 -133.78,-293.67 -19.77,-38.54 -39.03,-83.32 -23.43,-123.73 11.28,-29.17 39.2,-49.36 68.94,-59.03 29.75,-9.67 61.57,-10.33 92.84,-10.89 162.32,-2.96 324.63,-5.91 486.94,-8.86 53.12,-0.97 114.27,1.64 147.26,43.28 14.27,18.02 20.78,40.8 26.96,62.94 39.9,142.82 79.8,285.67 115.29,429.64 9.72,39.4 19.5,78.97 26.55,118.95 5.04,28.58 -2.37,51.62 -0.49,78.91 1.41,20.41 34.38,33.97 49.2,42.46 21.18,12.13 52.02,25.72 64.94,47.11 1.96,3.26 3.64,6.82 3.87,10.62 0.47,7.62 -11.14,13.54 -16.86,18.61 -70.34,62.42 -104.25,136.36 -181.45,156 -68.44,17.41 -140.37,4.85 -209.73,1.98 -99.42,-4.11 -210.82,13.42 -304.52,-26.37 -3.11,-1.33 -6.15,-2.68 -9.12,-4.08"
         style="fill:#f04252;fill-opacity:1;fill-rule:nonzero;stroke:none"
         id="path72" />
      <path
         d="m 2635.39,3063.44 c 1.94,20.27 2.38,40.77 1.86,60.95 -1.65,65.49 -12.11,130.88 -7.71,196.24 5.28,78.33 54.52,132.19 133.26,140.63 62.96,6.75 131.09,-19.78 161.8,-77.51 44.65,-83.97 21.36,-246.46 -78.93,-278.08 -10.69,-55.87 -28.33,-138.27 -12.65,-193.92 -37.9,-16.37 -84.25,-26.97 -125.66,-26.83 -43.28,0.15 -88.8,16.12 -114.01,51.29 25.78,37.28 37.7,81.7 42.04,127.23"
         style="fill:#ef7888;fill-opacity:1;fill-rule:nonzero;stroke:none"
         id="path74" />
      <path
         d="m 3078.23,2840.66 c 31.38,-32.43 68.42,-59.07 108.14,-80.98 28.97,-15.99 62.64,-28.57 94.7,-20.36 37.58,9.64 62.8,45.44 76.16,81.86 31.42,85.62 35.96,190.24 127.34,239.09 35.12,18.77 78.48,19.75 115.71,5.68 81.9,-30.96 128.39,-123.08 123.05,-207.16 -4.19,-66.06 -29.52,-128.89 -58.41,-188.44 -27.77,-57.24 -62.36,-111.03 -91.32,-167.12 -26.52,-51.35 -73.43,-99.61 -120.76,-132.2 -70.34,-48.42 -159.79,-67.63 -244.12,-54.1 -138.48,22.24 -206.37,109.23 -269.91,223.63 -11.54,20.78 -23.25,42.04 -27.38,65.44 -10.16,57.52 27.25,107.92 43.16,160.4 6.72,22.14 13.26,44.43 17.36,67.23 3.56,19.8 4.92,43.24 16.84,60.24 17.99,25.66 42.31,14.16 56.05,-9.09 9.39,-15.89 20.55,-30.86 33.39,-44.12"
         style="fill:#f04252;fill-opacity:1;fill-rule:nonzero;stroke:none"
         id="path76" />
      <path
         d="m 2396.13,925.949 c -12.68,-18.469 -24.95,-37.23 -36.82,-56.25 -2.46,-3.949 -4.94,-7.969 -6.15,-12.48 -3.67,-13.559 4.78,-27.137 12.82,-38.68 18.45,7.82 34.95,20.199 47.61,35.731 -12.34,-15.149 -9.18,-48.668 -11.54,-67 -2.64,-20.508 -2.57,-37.989 3.45,-58.36 12.14,-41.078 40.06,-75.172 67.67,-106.961 28.97,-33.34 61.8,-66.078 103.9,-79.418 6.58,-2.09 13.86,-3.64 20.22,-1 15.17,6.289 12.84,28.239 7.97,43.93 -15.81,50.961 -30.24,102.629 -37.76,155.551 -6.79,47.82 4.32,140.879 -13.88,185.988 -13.63,33.809 -34.84,25.211 -57.2,53.988 -7.98,10.274 -19.23,21.182 -31.94,18.442 -22.44,-4.809 -39.62,-32.758 -51.72,-49.719 -5.62,-7.859 -11.16,-15.781 -16.63,-23.762"
         style="fill:#040606;fill-opacity:1;fill-rule:nonzero;stroke:none"
         id="path78" />
      <path
         d="m 2600.86,967.332 c -13.96,-22.191 -25.95,-45.391 -33.19,-70.992 -7.8,-27.68 -11.47,-60.199 -35.04,-76.649 -3.88,-2.711 -8.35,-4.882 -13.08,-4.851 -5.14,0.039 -9.88,2.672 -14.22,5.441 -42.85,27.418 -76.14,86.758 -67.53,138.809 4.47,27.039 26.36,53.86 36.01,80.64 13.05,36.22 23,73.49 36.87,109.43 9.95,25.8 22.63,51.84 44.49,68.79 36.64,28.42 100.59,9.15 128.76,-24.06 28.21,-33.24 1.21,-100.4 -18.66,-132.43 -19.89,-32.05 -44.2,-62.019 -64.41,-94.128"
         style="fill:#ef7888;fill-opacity:1;fill-rule:nonzero;stroke:none"
         id="path80" />
      <path
         d="m 3077.05,1960.91 c -14.02,150.47 -148.09,236.55 -287.85,234.52 -109.57,-1.58 -218.97,-21.91 -325.93,-45.71 -176.37,-39.23 -335.1,-93.8 -443.71,-244.82 -26.93,-37.7 -97.24,-139.13 -59.06,-186.16 2.79,-3.45 6.51,-6.33 10.59,-9 h 502.43 c 52.9,9.53 106.08,15.81 137.31,34.07 -15.49,-96.82 -73.96,-198.79 -101.53,-295.38 -31.2,-109.3 -54.47,-220.85 -69.48,-333.53 -3,-22.54 -4.75,-48.27 10.49,-65.16 11.27,-12.49 28.9,-16.57 45.37,-20.02 57.26,-11.98 138.08,-28.67 185.21,14.56 56.6,51.91 97.01,149.83 134.5,216.29 82.96,147.08 154.53,300.58 213.79,458.71 29.07,77.57 55.56,159.14 47.87,241.63"
         style="fill:#ffffff;fill-opacity:1;fill-rule:nonzero;stroke:none"
         id="path82" />
      <path
         d="m 2353.73,2863.09 c -62.18,-45.7 -124.37,-91.4 -186.55,-137.1 -150.82,-110.84 -314.74,-238.13 -371.5,-424.8 -15.17,-49.87 -21.83,-103.44 -10.41,-154.3 11.42,-50.87 42.64,-98.7 89.03,-122.48 38.92,-19.95 86.81,-21.41 126.87,-3.88 61.12,26.73 96.19,89.72 135.19,143.85 66.11,91.78 159.01,143.28 235.58,221.28 44.5,45.33 88.19,92.04 124.21,144.55 16.94,24.71 31.75,48.27 50.48,71.38 20.96,25.83 40.59,52.73 58.82,80.55 9.44,14.41 18.65,29.41 22.49,46.19 4.19,18.27 1.72,37.34 -0.99,55.89 -7.29,49.97 -16.68,101.11 -43.32,144.02 -2.44,3.93 -5.2,7.95 -9.32,10.06 -3.19,1.64 -6.88,1.96 -10.46,2.17 -78.72,4.68 -148.69,-32.23 -210.12,-77.38"
         style="fill:#f04252;fill-opacity:1;fill-rule:nonzero;stroke:none"
         id="path84" />
      <path
         d="m 2944.33,2646.38 c 22.69,-92.78 48.45,-128.55 66.55,-221.63"
         style="fill:none;stroke:#040606;stroke-width:10;stroke-linecap:butt;stroke-linejoin:miter;stroke-miterlimit:10;stroke-dasharray:none;stroke-opacity:1"
         id="path86" />
      <path
         d="m 2833.69,3318.58 c -15.19,-4.57 -30.49,-8.73 -45.9,-12.49 -37.44,-9.12 -68.93,-30.82 -70.45,-72.13 -0.87,-23.67 7.21,-39.03 0.21,-62.14 -6.17,-20.36 -9.45,-45.89 -28.21,-59.07 -19.6,-13.77 -48.26,-5.98 -65.23,10.93 -16.96,16.92 -25.06,40.53 -32.63,63.26 -6.85,20.56 -13.7,41.11 -20.54,61.67 -5.49,16.47 -11.01,33.08 -12.96,50.33 -4.8,42.42 12.41,84.44 34.93,120.71 19.45,31.3 44.67,61.17 79.01,74.56 42.46,16.57 79.93,1.74 122.12,-4.42 36.76,-5.37 70.41,-4.46 106.72,-18.49 34.24,-13.24 89.66,-53.78 57.23,-95.68 -11.2,-14.46 -28.68,-22.42 -45.62,-29.3 -25.78,-10.47 -52.04,-19.73 -78.68,-27.74"
         style="fill:#1f1d1c;fill-opacity:1;fill-rule:nonzero;stroke:none"
         id="path88" />
      <g
         id="g90">
        <g
           id="g92"
           clip-path="url(#clipPath96)">
          <path
             d="m 2941.08,3146.55 c -22.96,-22.85 -56.01,-31.59 -87.43,-39.44 -22.45,-5.6 -44.9,-11.21 -67.35,-16.81 25.96,-14.47 53.71,-26.61 83.13,-30.81 29.42,-4.19 60.81,0.14 85.65,16.46"
             style="fill:#1f1d1c;fill-opacity:1;fill-rule:nonzero;stroke:none"
             id="path98" />
        </g>
      </g>
      <path
         d="m 2757.71,3259.21 c -2.85,4.52 -6.61,8.18 -10.84,11.03 -5.38,7.69 -14.28,12.18 -24.1,11.31 -11.52,-1.04 -22.43,-7.1 -30.07,-15.73 -14.4,-16.25 -17.38,-40.12 -5.59,-58.76 6.12,-9.67 16.01,-17.98 27.63,-19.53 11.88,-1.59 23.29,3.9 32.01,11.63 16.65,14.78 23.32,40.47 10.96,60.05"
         style="fill:#ef7888;fill-opacity:1;fill-rule:nonzero;stroke:none"
         id="path100" />
      <path
         d="m 2709.42,3241.92 c 4.65,3.13 11.05,3.42 15.96,0.73 4.84,-2.64 7.95,-7.77 9.2,-13.14 1.26,-5.36 0.86,-10.97 0.07,-16.42"
         style="fill:#1f1d1c;fill-opacity:1;fill-rule:nonzero;stroke:none"
         id="path102" />
      <path
         d="m 2946.87,2156.01 c 230.88,-116.84 147.23,-302.15 113.17,-400.58 -34.07,-98.42 -110.64,-236.02 -155.4,-330.06"
         style="fill:none;stroke:#040606;stroke-width:10;stroke-linecap:butt;stroke-linejoin:miter;stroke-miterlimit:10;stroke-dasharray:none;stroke-opacity:1"
         id="path104" />
      <path
         d="m 2601.05,1740.95 c 21.55,15.28 42.62,31.22 63.2,47.78"
         style="fill:none;stroke:#040606;stroke-width:10;stroke-linecap:butt;stroke-linejoin:miter;stroke-miterlimit:10;stroke-dasharray:none;stroke-opacity:1"
         id="path106" />
      <path
         d="M 1609.71,1032.23 H 898.313 c -35.372,0 -64.043,28.68 -64.043,64.04 v 879.99 c 0,131.06 106.257,237.32 237.33,237.32 h 538.11 c 117.31,0 212.41,-95.11 212.41,-212.41 v -756.52 c 0,-117.32 -95.1,-212.42 -212.41,-212.42"
         style="fill:#5ab499;fill-opacity:1;fill-rule:nonzero;stroke:none"
         id="path108" />
      <path
         d="m 1758.3,1032.23 h -273.14 c -35.24,0 -63.81,28.58 -63.81,63.82 v 935.59 c 0,100.48 81.45,181.94 181.93,181.94 h 36.9 c 100.48,0 181.94,-81.46 181.94,-181.94 v -935.59 c 0,-35.24 -28.58,-63.82 -63.82,-63.82"
         style="fill:#70ceb1;fill-opacity:1;fill-rule:nonzero;stroke:none"
         id="path110" />
      <path
         d="m 6327.82,807.02 -121.84,392.26 h -261.5 L 5726.56,807.02"
         style="fill:none;stroke:#040606;stroke-width:20;stroke-linecap:round;stroke-linejoin:miter;stroke-miterlimit:10;stroke-dasharray:none;stroke-opacity:1"
         id="path112" />
      <path
         d="m 5076.73,807.02 -121.84,392.26 h -261.5 L 4475.47,807.02"
         style="fill:none;stroke:#040606;stroke-width:20;stroke-linecap:round;stroke-linejoin:miter;stroke-miterlimit:10;stroke-dasharray:none;stroke-opacity:1"
         id="path114" />
      <path
         d="m 4351.89,1010.69 h 774.88 c 35.37,0 64.04,28.67 64.04,64.04 v 1129.18 c 0,35.37 -28.67,64.04 -64.04,64.04 h -774.88 c -117.31,0 -212.41,-95.1 -212.41,-212.42 V 1223.1 c 0,-117.31 95.1,-212.41 212.41,-212.41"
         style="fill:#5ab499;fill-opacity:1;fill-rule:nonzero;stroke:none"
         id="path116" />
      <path
         d="m 6402.6,1650.71 c 1.21,35.77 172.11,719.59 229.72,949.21 11.67,46.52 -0.94,95.72 -33.49,130.94 l -287.05,178.6 c -31.96,19.62 -30.6,-26.49 -39.39,-62.95 L 6019.05,1795.43 6402.6,1650.71"
         style="fill:#5ab499;fill-opacity:1;fill-rule:nonzero;stroke:none"
         id="path118" />
      <path
         d="m 4883.7,1639.32 h 1143.29 l 315.23,1191.91 c 11.94,45.11 -21.97,89.32 -68.62,89.51 l -953.12,11.02 c -104.93,0 -195.24,-74.15 -215.64,-177.07 L 4883.7,1639.32"
         style="fill:#70ceb1;fill-opacity:1;fill-rule:nonzero;stroke:none"
         id="path120" />
      <path
         d="m 4506.95,1246.49 h 1561.02 v 403.26 H 4506.95 v -403.26"
         style="fill:#5ab499;fill-opacity:1;fill-rule:nonzero;stroke:none"
         id="path122" />
      <path
         d="m 4665.14,1010.69 h 1402.83 v 283.02 H 4665.14 v -283.02"
         style="fill:#5ab499;fill-opacity:1;fill-rule:nonzero;stroke:none"
         id="path124" />
      <path
         d="M 5878.12,1319.14 H 4836.17"
         style="fill:none;stroke:#040606;stroke-width:10;stroke-linecap:butt;stroke-linejoin:miter;stroke-miterlimit:10;stroke-dasharray:none;stroke-opacity:1"
         id="path126" />
      <path
         d="m 5090.79,2019.25 c 63.3,-49.92 98.33,-118.24 147.6,-183.92 36.41,-44.66 111.42,-80.56 179.57,-85.51 84.95,-6.17 187.99,0.86 268.31,46.71 99.94,57.06 153.3,168.59 190.02,273.81 8.91,25.55 13.89,46.78 8.01,71.56 -10.04,42.25 -41.32,76.5 -75.55,101.46 -16.15,11.78 -33.5,18.06 -41.2,37.77 -6.93,17.72 -3.63,37.8 -10.54,55.61 -7.05,18.13 -24.06,30.87 -42.3,37.62 -32.37,11.99 -69.41,7.43 -100.43,-7.66 -16.23,-7.89 -30.87,-18.52 -44.15,-30.68 -6.75,-6.17 -21.62,-27.95 -29.96,-30.03 -3.05,-0.76 -6.19,0.59 -9.06,1.9 -95.41,43.57 -194.6,75.54 -293.49,109.43 -112.06,38.39 -243.69,87.18 -363.38,66.77 -92.41,-15.75 -184.24,-72.32 -206.61,-168.82 -0.44,-1.96 -0.86,-3.92 -1.26,-5.89 -5.72,-28.53 -4.52,-58 -1.49,-86.94 1.63,-15.6 4.48,-32.53 16.17,-42.99 8.77,-7.85 20.93,-10.52 32.57,-12.27 15.59,-2.35 31.44,-3.61 47.12,-2 31.91,3.27 64.71,15.83 96.89,8.69 39.09,-8.7 70.86,-42.75 104.06,-64.2 44.12,-28.53 87.81,-57.87 129.1,-90.42"
         style="fill:#4c73b1;fill-opacity:1;fill-rule:nonzero;stroke:none"
         id="path128" />
      <path
         d="m 4187.57,1010.69 h 298.89 c 35.25,0 63.82,28.58 63.82,63.82 v 999.8 c 0,106.95 -86.69,193.64 -193.63,193.64 h -39.27 c -106.93,0 -193.63,-86.69 -193.63,-193.64 v -999.8 c 0,-35.24 28.57,-63.82 63.82,-63.82"
         style="fill:#70ceb1;fill-opacity:1;fill-rule:nonzero;stroke:none"
         id="path130" />
      <path
         d="m 5229.62,2372.11 c -32.64,-12.23 -31.92,-2.8 -70.08,2.5 -59.64,8.27 -115.22,42.47 -149.47,91.98 -20.84,30.12 -39.94,69.76 -20.31,105.02 10.13,18.21 28.6,31.56 49.07,35.46 29.57,5.64 59,-7.57 87.25,-17.96 2.42,-0.88 4.96,-1.77 7.52,-1.42 3.15,0.43 5.71,2.64 8.09,4.74 59.19,52.68 117.85,106 178.65,156.81 85.83,71.71 182.9,130.02 286.78,171.55 25.73,10.29 54.61,19.61 80.58,9.93 38.26,-14.26 51.33,-62.01 50.92,-102.83 -1.24,-122.7 -59.33,-156.94 -156.36,-224.2 -51.29,-35.55 -125.42,-125.36 -182.58,-150.1 -46.39,-20.07 -124.14,-64.27 -170.06,-81.48"
         style="fill:#ef7888;fill-opacity:1;fill-rule:nonzero;stroke:none"
         id="path132" />
      <path
         d="m 6087.53,1884.97 c -12.83,-45.1 -25.95,-90.86 -50.31,-130.67 -49.68,-81.19 -141.58,-127.89 -234.19,-141.32 -92.62,-13.44 -186.82,2.43 -278.22,22.87 -206.05,46.07 -417.15,102.97 -595.65,220.82 -59.47,39.27 -187.3,116.93 -197.17,195.75 -12.45,99.38 110.25,161.22 190.36,164.77 178.41,7.91 393.1,-49.28 563.75,-97.89 56.12,-15.98 115.45,13.99 137.1,69.38 11.14,28.52 23.12,56.71 35.89,84.51 10.12,22.02 22.11,45.26 43.33,56.21 23.51,12.13 51.67,5.9 77.21,-0.67 68.88,-17.75 138.24,-36.37 201.65,-69.16 52.13,-26.96 132.52,-78.4 148.84,-140.84 17.74,-67.91 -24.24,-169.29 -42.59,-233.76"
         style="fill:#4c73b1;fill-opacity:1;fill-rule:nonzero;stroke:none"
         id="path134" />
      <path
         d="m 6120.81,2075.43 c -20.81,14.33 -42.14,28.07 -63.85,41.29 28.97,-25.36 51.82,-57.27 71.89,-89.89 5.24,10.37 10.41,20.86 15.57,31.37 -7.66,6.04 -15.61,11.72 -23.61,17.23"
         style="fill:#ffffff;fill-opacity:1;fill-rule:nonzero;stroke:none"
         id="path136" />
      <path
         d="m 6277.56,2669.28 c -19.12,72.62 -50.03,144.38 -86.03,214.26 -27.78,53.94 -67.06,122.34 -125.24,148.52 -63.48,28.57 -122.76,15.85 -189.82,9.57 -9.72,-0.91 -19.91,-1.98 -27.99,-7.48 -8.57,-5.85 -13.33,-15.72 -17.68,-25.15 -47.52,-102.85 -83.6,-210.54 -130.85,-313.51 -48.4,-105.5 -108.87,-206.21 -163.9,-308.4 -13.21,-24.52 -21.24,-43.49 -40.91,-63.22 57.37,-40.31 101.66,-57.81 163.57,-83.98 78.75,-33.3 162.19,-58.35 242.66,-87.31 26.76,-9.63 53.82,-19.34 82.09,-22.53 100.63,-11.38 193.26,62.4 246.05,148.82 78.74,128.89 82.11,261 48.05,390.41"
         style="fill:#ffffff;fill-opacity:1;fill-rule:nonzero;stroke:none"
         id="path138" />
      <path
         d="m 6024.43,2237.48 c -0.33,0.31 -0.66,0.62 -0.99,0.94 -49.18,46.72 -64.85,131.74 -54.05,196.14 8.37,49.92 20.7,90.98 44.18,136.58 53.74,104.28 113.3,210.02 206.44,281.35 29.68,22.74 63.32,41.91 100.29,47.42 156.39,23.3 155.86,-195.88 142.9,-293.16 -13.12,-98.51 -26.36,-197.49 -54.81,-292.71 -8.17,-27.32 -17.8,-54.72 -34.51,-77.82 -26.63,-36.8 -63.92,-46.58 -107.05,-49.01 -36.11,-2.03 -72.37,-1.34 -108.38,2.06 -48.15,4.54 -98.67,15.32 -134.02,48.21"
         style="fill:#ffffff;fill-opacity:1;fill-rule:nonzero;stroke:none"
         id="path140" />
      <path
         d="m 4208.39,855.199 c -52.92,-46.808 -109.06,-90.367 -154.42,-144.09 -9.56,-11.328 -18.56,-23.687 -22.27,-38.05 -30.69,-118.59 146.96,-110.18 206.18,-76.848 128.13,72.07 225.16,244.09 291.57,369.75 38.78,73.369 108.73,179.789 103.76,264.539 -0.64,11.12 -2.54,22.41 -7.85,32.2 -11.06,20.43 -35.32,30.81 -58.53,31.85 -46.34,2.09 -89.4,-27.33 -116.91,-64.69 -27.5,-37.35 -42.52,-82.16 -58.83,-125.59 C 4351.94,1000 4290.7,928.031 4208.39,855.199"
         style="fill:#040606;fill-opacity:1;fill-rule:nonzero;stroke:none"
         id="path142" />
      <path
         d="m 5804.15,2015.19 c 27.91,-4.87 55.81,-9.75 83.72,-14.64 57.35,-10.02 119.5,-22.13 176.84,-6.16 58.72,16.36 99,68.05 92.5,130.31 -8.08,77.6 -95.62,83.21 -156.32,88.15 -79.57,6.48 -159.62,3.36 -239.1,-2.83 -40.7,-3.17 -81.32,-7.25 -121.94,-11.39 -55.14,-5.62 -110.9,-6.6 -165.52,-16.66 -26.28,-4.83 -52.5,-11.07 -77.26,-21.27 -22.83,-9.38 -48.32,-21.71 -66.52,-38.63 -3.42,-3.19 -6.67,-6.72 -8.62,-10.98 -1.96,-4.26 -2.51,-9.35 -0.55,-13.61 2.6,-5.69 7.88,-6.24 13.18,-7.16 -4.47,-7.38 -7.65,-16.86 -4.94,-25.42 2.7,-8.53 13.39,-14.67 21.02,-10.02 1.08,-9.12 9.11,-16.25 17.92,-18.84 8.81,-2.58 18.26,-1.42 27.28,0.33 2.92,-9 14.71,-10.92 24.16,-10.36 26.14,1.55 49.87,12.22 75.11,17.69 27.33,5.92 54.64,12.38 82.51,15.34 44.86,4.77 77.94,-8.94 120.61,-17.95 28.4,-5.99 54.04,-16.83 82.47,-21.8 7.81,-1.36 15.64,-2.73 23.45,-4.1"
         style="fill:#ef7888;fill-opacity:1;fill-rule:nonzero;stroke:none"
         id="path144" />
      <path
         d="m 5804.94,1010.69 h 774.87 c 35.36,0 64.04,28.67 64.04,64.04 v 1018.86 c 0,96.3 -78.06,174.36 -174.36,174.36 h -664.56 c -117.3,0 -212.41,-95.1 -212.41,-212.42 V 1223.1 c 0,-117.31 95.11,-212.41 212.42,-212.41"
         style="fill:#5ab499;fill-opacity:1;fill-rule:nonzero;stroke:none"
         id="path146" />
      <path
         d="m 5656.35,1010.69 h 298.88 c 35.25,0 63.82,28.58 63.82,63.82 v 999.8 c 0,106.95 -86.69,193.64 -193.63,193.64 h -39.26 c -106.94,0 -193.64,-86.69 -193.64,-193.64 v -999.8 c 0,-35.24 28.57,-63.82 63.83,-63.82"
         style="fill:#70ceb1;fill-opacity:1;fill-rule:nonzero;stroke:none"
         id="path148" />
      <path
         d="m 4982.83,2204.21 c -63.44,11.56 -129.74,0.48 -179.42,-40.14 -57.04,-46.62 -92.78,-114.1 -125.47,-180.4 -135.26,-274.31 -276.9,-584.3 -334.08,-887.7 63.21,-28.34 212.14,-40.16 288.2,-65.26 10.07,-3.32 21.05,1 26.44,10.12 43.02,72.76 215.54,371.68 336.89,540.75 77.7,108.26 188.33,251.25 193.9,391.41 4.74,119.47 -96.39,211.16 -206.46,231.22"
         style="fill:#4c73b1;fill-opacity:1;fill-rule:nonzero;stroke:none"
         id="path150" />
      <path
         d="m 5872.5,3034.51 c 17.68,12.9 40.88,16.42 62.95,18.05 124.53,9.25 250.95,-16.19 363.31,-70.34 106.6,-51.38 166.3,-172.81 169.58,-287.74 1.4,-49.38 -10.39,-105.76 -53.05,-130.69 -23.76,-13.9 -53.26,-15.15 -80.12,-9.14 -26.86,6 -51.71,18.64 -76.11,31.37 -125.28,65.37 -247.72,136.25 -366.23,213.23 -19.58,12.73 -39.61,26.15 -52.45,45.66 -21.95,33.33 -11.15,87.6 -2.88,124.06 5.24,23.11 13.11,47.14 31.15,62.51 1.25,1.06 2.53,2.07 3.85,3.03"
         style="fill:#ffffff;fill-opacity:1;fill-rule:nonzero;stroke:none"
         id="path152" />
      <path
         d="m 6109.14,3150.46 c 2.44,33.65 4.77,69.87 13.73,102.2 7.88,28.44 17.71,55.2 21.82,85.15 6.68,48.61 0.04,129.8 -47.08,157.77 -14.68,8.71 -31.37,13.29 -47.84,17.77 -17.5,4.76 -35.01,9.52 -52.51,14.28 -15.99,4.35 -32.25,8.74 -48.81,8.33 -16.57,-0.39 -33.78,-6.25 -44.18,-19.15 -7.34,-9.1 -31.85,-13.49 -34.81,-24.8 -24.27,-92.69 -33.05,-206.6 24.33,-293.59 13.85,-21.01 30.88,-26.52 35.45,-52.79 4.19,-24.08 0.91,-49.53 -9.74,-71.56 -5.47,-11.32 -10.61,-19.87 -21.62,-24.73 -3.98,-1.75 -37.04,-5.96 -42.51,-6.8 30.37,-54.06 79.46,-104.8 141.35,-108.57 13.15,-0.8 26.35,0.58 39.34,2.81 65.77,11.28 109.1,58.5 170.53,81.31 -16.52,6.36 -33.06,12.71 -49.58,19.08 -11.46,4.41 -23.11,8.92 -32.8,16.45 -26.68,20.74 -17.67,61.6 -15.48,91.12 0.14,1.9 0.27,3.81 0.41,5.72"
         style="fill:#ef7888;fill-opacity:1;fill-rule:nonzero;stroke:none"
         id="path154" />
      <path
         d="m 5945.02,3588.67 c 13.08,0 26.34,-1.63 39.43,-2.43 36.94,-2.28 73.96,1.7 110.88,-1.45 30.28,-2.59 56.96,-1.13 84.1,-19.11 13.11,-8.69 23.97,-20.41 33.25,-33.09 13.64,-18.61 24.12,-39.52 30.9,-61.57 4.87,-15.81 8.15,-32.85 18.77,-45.53 6.94,-8.28 16.45,-13.98 23.93,-21.76 10.47,-10.87 16.59,-25.81 16.77,-40.9 0.08,-7.39 -1.19,-14.85 0.07,-22.14 1.61,-9.37 9.16,-12.53 12.88,-19.74 5.49,-10.64 5.55,-21.88 13.91,-31.61 15.05,-17.51 41.59,-21.31 57.03,-38.46 16.79,-18.66 13.85,-51.45 -5.98,-66.81 -14.38,-11.13 -33.72,-12.72 -51.85,-13.83 -69.15,-4.21 -138.35,-7.76 -207.57,-10.62 -2.24,-0.09 -4.53,-0.18 -6.7,0.4 -10.12,2.66 -11.43,16.26 -10.96,26.71 1.8,39.01 4.49,93.74 -10.82,130.52 -8.03,19.3 -33.21,24.15 -41.26,43.31 -10.51,25.04 8.58,61.14 -15.58,80.31 -9.86,7.82 -23.34,9.58 -35.86,8.31 -10.81,-1.09 -21.25,-5.61 -31.96,-6.49 -9.06,-0.74 -16.86,0.11 -26.1,-1.95 -21.3,-4.74 -43.4,-12.67 -65.35,-7.05 -22.37,5.73 -40.04,26.57 -42.02,49.58 -2.15,24.87 12.33,48.22 29.35,66.48 15.15,16.29 33.48,30.62 55.05,36.08 8.42,2.13 17.02,2.84 25.69,2.84"
         style="fill:#040606;fill-opacity:1;fill-rule:nonzero;stroke:none"
         id="path156" />
      <path
         d="m 6112.95,3262.9 c -11.13,-2.64 -23.05,-1.71 -34.29,4.08 -25.6,13.18 -28.21,51.05 -17.96,74.66 6.38,14.68 19.49,26.49 35.02,30.32 9.95,2.45 20.41,1.7 30.53,0.07 5.07,-0.81 10.21,-1.89 14.58,-4.57 5.13,-3.17 8.75,-8.31 11.47,-13.69 8.36,-16.49 9.36,-36.56 2.66,-53.79 -7.11,-18.31 -23.44,-32.67 -42.01,-37.08"
         style="fill:#ef7888;fill-opacity:1;fill-rule:nonzero;stroke:none"
         id="path158" />
      <path
         d="m 6106.34,3341.05 c 7.62,-2.18 14.14,-8.66 15.58,-16.63 1.46,-7.96 -2.82,-16.91 -10.2,-19.85 -2.95,-1.18 -6.17,-1.41 -9.31,-1.62 0.01,0.95 0.04,1.91 0.05,2.86"
         style="fill:#040606;fill-opacity:1;fill-rule:nonzero;stroke:none"
         id="path160" />
      <path
         d="m 5916.1,3231.61 c -1.91,0.12 -3.86,0.61 -5.77,1.53 -11.92,5.73 -25.25,22.86 -16.16,35.87 4.41,6.32 12.63,9.47 20.27,8.48 7.64,-0.99 14.53,-5.79 18.8,-12.19 1.93,-2.9 3.4,-6.19 3.67,-9.66 0.99,-12.38 -9.43,-24.74 -20.81,-24.03"
         style="fill:#040606;fill-opacity:1;fill-rule:nonzero;stroke:none"
         id="path162" />
      <path
         d="m 4595.01,1623.78 c 4.55,19.09 8.63,39.67 -4.33,51.67 -21.34,19.75 -84.94,6.54 -108.83,-0.82 -11.25,-3.46 -22.81,-8.44 -29.49,-18.13 -5.13,-7.45 -6.68,-16.71 -8.29,-25.6 -17.65,-97.89 -79.09,-197.29 -159.23,-258.99 -42.86,-33 -97.21,-53.22 -128.76,-97.17 -16.61,-23.15 -24.3,-57.7 -5.11,-78.76 12.83,-14.04 33.39,-17.49 52.37,-18.6 60.11,-3.55 122.27,5.76 178.24,28.14 61.77,24.69 111.24,68.91 159.73,113.2 4.59,4.2 9.29,8.57 11.87,14.25 2.66,5.85 2.79,12.49 2.91,18.9 1.54,86.17 22.26,165.95 34.33,250.62 0.93,6.45 2.79,13.76 4.59,21.29"
         style="fill:#040606;fill-opacity:1;fill-rule:nonzero;stroke:none"
         id="path164" />
      <path
         d="m 4434.58,1930.05 c -37.19,-106.34 -88.2,-202.01 -121.69,-307.77 -3.34,-10.53 1.45,-21.99 11.27,-27.08 49.2,-25.49 135.92,-59.03 179.5,-68.36 17.07,-3.66 92.2,-28.39 103.06,-12.23 149.32,222.3 294.52,464.25 387.05,716.5 28.32,77.2 66.82,186.28 -25.06,238.37 -23.31,13.21 -50.56,17.53 -77.22,14.91 -103.27,-10.11 -209.61,-88.78 -261.07,-181.88 -20.51,-37.1 -34.03,-77.61 -51.87,-116.06 -40.21,-86.64 -112.16,-165.4 -143.97,-256.4"
         style="fill:#4c73b1;fill-opacity:1;fill-rule:nonzero;stroke:none"
         id="path166" />
      <g
         id="g168">
        <g
           id="g170"
           clip-path="url(#clipPath174)">
          <path
             d="m 5895.3,3116.36 c 7.45,-12.28 25.7,-15.94 39.67,-14.53 35.58,3.59 65.24,30.59 82.24,60.91 -37.26,-9.79 -76.88,-0.08 -112.8,13.85 -4.33,-17.55 -11.7,-36.19 -11.7,-54.03 0.58,-2.27 1.47,-4.33 2.59,-6.2"
             style="fill:#040606;fill-opacity:1;fill-rule:nonzero;stroke:none"
             id="path176" />
        </g>
      </g>
      <path
         d="m 5346.7,2145.22 c -48.18,11.51 -318.56,70.24 -366.72,81.75 -74.41,-267.85 -218.67,-491.78 -374.73,-721.83"
         style="fill:none;stroke:#0d101f;stroke-width:10;stroke-linecap:round;stroke-linejoin:round;stroke-miterlimit:10;stroke-dasharray:none;stroke-opacity:1"
         id="path178" />
      <path
         d="m 4895.54,2582.26 c 28.62,-36.54 57.25,-73.08 85.88,-109.62 50.19,-64.05 92.74,-128.19 179.21,-123.76 54.91,2.82 127.41,52.84 137.64,65.98 11.93,15.31 -9.98,62.96 -19.74,79.61 -17.12,29.19 -39.91,54.66 -61.98,80.13 -63,72.7 -134.51,137.54 -208.11,199.27 -37.69,31.62 -76.09,62.37 -114.53,93.07 -30.44,24.31 -64.53,46.12 -79.82,83.98 -7.57,18.73 -10.08,39.74 -21.39,56.48 -7.56,11.18 -18.61,19.71 -25.9,31.08 -4.91,7.63 -8.11,16.54 -14.67,22.8 -6.58,6.26 -18.46,8.47 -24.15,1.41 -3.07,-3.8 -3.41,-9.09 -3.05,-13.96 1.19,-15.83 14.14,-30.19 14.26,-45.42 0.14,-20.8 -24.03,1.16 -29.61,6.24 -22.6,20.57 -50.86,36.29 -76.53,52.91 -6.9,4.46 -14.36,8.99 -22.56,8.88 -8.21,-0.12 -16.83,-7.03 -15.55,-15.13 -10.27,4.56 -21.41,9.23 -32.42,6.98 -11.03,-2.25 -20.48,-14.83 -15.23,-24.77 -11.12,-1.08 -19.27,-12.08 -20.61,-23.18 -1.33,-11.1 2.62,-22.13 7.16,-32.34 0.87,-1.95 1.76,-3.96 1.71,-6.08 -0.07,-2.57 -1.52,-4.86 -2.37,-7.28 -10.41,-29.65 27.97,-53.45 46.47,-69.17 31.26,-26.56 68.92,-47.31 104.92,-67.12 7.34,-4.03 14.74,-8.01 21.67,-12.74 20.44,-13.97 35.86,-33.97 50.93,-53.62 47.03,-61.36 90.82,-123.94 138.37,-184.63"
         style="fill:#ef7888;fill-opacity:1;fill-rule:nonzero;stroke:none"
         id="path180" />
      <path
         d="m 5888.3,2916.28 c -10.57,42.49 11.66,55.79 -32.93,126.26 -113.36,-16.39 -237.12,-49.35 -330.79,-109.38 -126.84,-81.27 -248.69,-166.16 -352.72,-276.2 13.26,-17.47 30.1,-32.26 45.27,-48.04 23.27,-24.22 45.53,-49.77 67.96,-74.8 23.17,-25.86 44.89,-53.04 69.16,-77.91 9.61,-9.84 19.25,-18.71 30.71,-26.03 3.5,1.09 6.85,2.85 10.08,4.65 163.7,91.85 392.76,270.23 458.27,372.69 16.48,25.79 28.61,53.94 39.83,82.51 -1.61,8.75 -3.22,17.5 -4.84,26.25"
         style="fill:#ffffff;fill-opacity:1;fill-rule:nonzero;stroke:none"
         id="path182" />
      <path
         d="m 6177.15,2700.36 c 25.99,-36.29 13.48,-86.2 1.32,-129.16 -26.4,-93.35 -52.47,-205.02 -65.46,-301.15"
         style="fill:none;stroke:#0d101f;stroke-width:10;stroke-linecap:round;stroke-linejoin:miter;stroke-miterlimit:10;stroke-dasharray:none;stroke-opacity:1"
         id="path184" />
      <path
         d="m 5655.48,2607.92 c 24.54,56.14 35.21,87.47 56.34,144.99"
         style="fill:none;stroke:#0d101f;stroke-width:10;stroke-linecap:round;stroke-linejoin:miter;stroke-miterlimit:10;stroke-dasharray:none;stroke-opacity:1"
         id="path186" />
      <path
         d="m 5126.08,2385.09 c 10.27,-5.63 22.17,-8.22 33.85,-7.35"
         style="fill:none;stroke:#0d101f;stroke-width:10;stroke-linecap:round;stroke-linejoin:miter;stroke-miterlimit:10;stroke-dasharray:none;stroke-opacity:1"
         id="path188" />
      <path
         d="m 4739.92,2995.42 c -5.28,-14.42 -5.98,-30.48 -1.96,-45.3"
         style="fill:none;stroke:#0d101f;stroke-width:10;stroke-linecap:round;stroke-linejoin:miter;stroke-miterlimit:10;stroke-dasharray:none;stroke-opacity:1"
         id="path190" />
      <path
         d="m 4594.3,3056.21 c 2.91,-2.44 5.82,-4.88 8.73,-7.33 25.71,-21.6 51.42,-43.2 77.13,-64.8"
         style="fill:none;stroke:#0d101f;stroke-width:10;stroke-linecap:round;stroke-linejoin:miter;stroke-miterlimit:10;stroke-dasharray:none;stroke-opacity:1"
         id="path192" />
      <path
         d="m 4548.03,3035.65 c 32.48,-27.58 70.21,-59.86 105.03,-84.42"
         style="fill:none;stroke:#0d101f;stroke-width:10;stroke-linecap:round;stroke-linejoin:miter;stroke-miterlimit:10;stroke-dasharray:none;stroke-opacity:1"
         id="path194" />
      <path
         d="m 4535.33,2976.54 c 29.17,-23.43 60.1,-44.68 92.43,-63.52"
         style="fill:none;stroke:#0d101f;stroke-width:10;stroke-linecap:round;stroke-linejoin:miter;stroke-miterlimit:10;stroke-dasharray:none;stroke-opacity:1"
         id="path196" />
      <path
         d="m 5174.58,2622.56 c 9.3,-9.3 16.55,-20.65 21.09,-33"
         style="fill:none;stroke:#0d101f;stroke-width:10;stroke-linecap:round;stroke-linejoin:miter;stroke-miterlimit:10;stroke-dasharray:none;stroke-opacity:1"
         id="path198" />
      <path
         d="M 3020.3,1183.76 2871.45,478.5"
         style="fill:none;stroke:#f04252;stroke-width:20;stroke-linecap:butt;stroke-linejoin:miter;stroke-miterlimit:10;stroke-dasharray:none;stroke-opacity:1"
         id="path200" />
      <path
         d="M 4329.47,1183.76 4478.32,478.5"
         style="fill:none;stroke:#f04252;stroke-width:20;stroke-linecap:butt;stroke-linejoin:miter;stroke-miterlimit:10;stroke-dasharray:none;stroke-opacity:1"
         id="path202" />
      <path
         d="m 4733.78,1234.21 c 0,-87.59 -470.06,-125.56 -1049.91,-125.56 -579.86,0 -1049.92,37.97 -1049.92,125.56 0,87.58 470.06,125.54 1049.92,125.54 579.85,0 1049.91,-37.96 1049.91,-125.54"
         style="fill:#f04252;fill-opacity:1;fill-rule:nonzero;stroke:none"
         id="path204" />
      <path
         d="m 3959.7,1363.28 c -0.53,-1.42 1.17,2.31 1.18,2.33 0.38,0.69 0.8,1.33 1.22,2 0.11,0.16 0.11,0.19 0.18,0.29 0.52,0.61 1.06,1.22 1.61,1.8 0.79,0.79 3.66,3.21 3.04,2.76 -0.62,-0.45 2.64,1.59 3.62,2.12 0.73,0.4 1.48,0.76 2.23,1.12 0.39,0.17 0.97,0.4 1.15,0.47 1.82,0.56 3.61,1.15 5.45,1.59 0.56,0.14 3.29,0.62 3.68,0.73 1.66,0.17 3.33,0.28 5,0.31 7.29,0.09 12.56,-0.97 19.88,-4.42 7.7,-3.64 14.49,-8.49 20.91,-13.86 v -49.89 c 0,-3.64 0.21,-7.23 0.54,-10.79 -8.57,3.18 -17.07,6.56 -25.36,10.43 -16.47,7.68 -34.98,16.75 -42.67,33.6 -2.95,6.45 -3.62,14.14 -1.66,19.41 z m -27.48,-34.12 c 10.65,-23.4 33.91,-37.31 56.32,-47.66 16.78,-7.75 34.03,-14.33 51.63,-19.81 18.23,-37.58 56.62,-63.56 101.19,-63.56 v 0 c 62.12,0 112.5,50.37 112.5,112.5 v 125.05 h -225.01 v -35.32 c -6.61,3.7 -13.57,6.76 -21.03,8.74 -21.51,5.7 -45.67,1.45 -63.03,-12.65 -20.45,-16.62 -23.02,-44.3 -12.57,-67.29"
         style="fill:#040606;fill-opacity:1;fill-rule:nonzero;stroke:none"
         id="path206" />
      <path
         d="m 3019.51,1372.32 c -0.52,-1.42 1.18,2.32 1.19,2.34 0.38,0.67 0.8,1.32 1.22,1.98 0.11,0.17 0.12,0.19 0.18,0.3 0.53,0.61 1.06,1.22 1.62,1.79 0.78,0.8 3.65,3.22 3.03,2.77 -0.62,-0.46 2.64,1.58 3.62,2.12 0.73,0.4 1.48,0.76 2.24,1.12 0.39,0.16 0.96,0.4 1.15,0.46 1.81,0.57 3.6,1.16 5.45,1.6 0.55,0.13 3.28,0.61 3.67,0.73 1.66,0.17 3.34,0.28 5,0.3 7.29,0.1 12.56,-0.97 19.88,-4.41 7.71,-3.64 14.49,-8.5 20.91,-13.87 v -49.87 c 0,-3.66 0.21,-7.25 0.55,-10.81 -8.58,3.18 -17.07,6.58 -25.37,10.44 -16.47,7.68 -34.98,16.74 -42.68,33.6 -2.94,6.45 -3.61,14.13 -1.66,19.41 z m -27.46,-34.13 c 10.64,-23.4 33.91,-37.29 56.32,-47.65 16.77,-7.75 34.02,-14.33 51.63,-19.82 18.22,-37.58 56.61,-63.55 101.17,-63.55 v 0 c 62.14,0 112.51,50.37 112.51,112.51 v 125.04 h -225.01 v -35.32 c -6.61,3.7 -13.56,6.76 -21.03,8.74 -21.5,5.7 -45.67,1.46 -63.03,-12.65 -20.44,-16.62 -23.02,-44.31 -12.56,-67.3"
         style="fill:#040606;fill-opacity:1;fill-rule:nonzero;stroke:none"
         id="path208" />
      <path
         d="m 3783.84,2047.86 c 10.43,12.93 23.1,24.01 36.25,34.24 45.32,35.29 97.46,61.81 152.67,77.66 -2.07,-24.86 -4.14,-49.72 -6.21,-74.59 -1.74,-20.83 -3.62,-42.21 -12.83,-60.96 -16.92,-34.42 -51.51,-63.2 -81.16,-85.73 -13.65,-10.37 -138,-92.02 -135.49,-101.83 -13.81,54.06 -3.71,91.45 13.76,142.74 6.99,20.5 14.1,41.27 26.19,59.25 2.14,3.17 4.41,6.25 6.82,9.22"
         style="fill:#5ab499;fill-opacity:1;fill-rule:nonzero;stroke:none"
         id="path210" />
      <path
         d="m 3597.07,2085.26 c -2.86,26.69 2.88,54.82 15.52,77.35 13.39,23.88 34.04,42.71 54.34,61.1 23.39,21.19 46.78,42.39 70.17,63.58 4.7,4.26 34.62,-79.07 35.89,-86.8 4.75,-28.9 6.8,-65.3 -9.59,-90.97 -14.28,-22.34 -39.61,-37.76 -54.85,-60.62 -20.65,-30.94 -31.83,-65.93 -44.65,-100.53 -10.76,18.08 -18.34,37.06 -27.07,56.08 -8.05,17.55 -18.03,23.85 -26.26,38.08 -7.48,12.93 -11.87,27.59 -13.5,42.73"
         style="fill:#5ab499;fill-opacity:1;fill-rule:nonzero;stroke:none"
         id="path212" />
      <path
         d="m 3809.2,1965.02 c -54.61,-61.16 -75.59,-145.36 -83.19,-227 -7.58,-81.64 -3.7,-164.36 -17.28,-245.22"
         style="fill:none;stroke:#040606;stroke-width:10;stroke-linecap:butt;stroke-linejoin:miter;stroke-miterlimit:10;stroke-dasharray:none;stroke-opacity:1"
         id="path214" />
      <path
         d="m 3663.81,2074.09 c -0.36,-64.72 -0.71,-129.64 6.8,-193.93 2.34,-20.01 5.44,-39.93 8,-59.92 13.44,-104.94 12.06,-211.77 -4.09,-316.33"
         style="fill:none;stroke:#040606;stroke-width:10;stroke-linecap:butt;stroke-linejoin:miter;stroke-miterlimit:10;stroke-dasharray:none;stroke-opacity:1"
         id="path216" />
      <path
         d="m 3801.11,1226.82 14.71,459.02 h -231.9 l 14.71,-459.02 h 202.48"
         style="fill:#040606;fill-opacity:1;fill-rule:nonzero;stroke:none"
         id="path218" />
      <path
         d="m 3488.37,3222.21 c 0,14.92 -2.13,29.2 -8.26,41.87 -6.14,12.69 -14.82,23.94 -23.85,34.75"
         style="fill:none;stroke:#0d101f;stroke-width:10;stroke-linecap:round;stroke-linejoin:miter;stroke-miterlimit:10;stroke-dasharray:none;stroke-opacity:1"
         id="path220" />
      <path
         d="m 5836.04,3244.89 c -81.8,-15.69 -182.16,-5.72 -256.86,31.87 -76.14,38.33 -138.17,96.21 -218.67,126.86 -78.14,29.75 -170.42,20.32 -239.77,-27.88 -37.33,-25.94 -111.43,-112.9 -53.06,-156.15 10.86,-8.05 25.46,-8.6 38.94,-7.57 162.58,12.47 259.18,197.68 196.05,342.36 -63.31,145.09 -228.86,219.58 -386.21,236.97 -223.25,24.66 -483.51,-68.65 -556.07,-281.21 -19.19,-56.22 -22.32,-122.87 12.62,-170.92 19.05,-26.2 47.59,-44.22 77.65,-56.3 166.5,-66.93 372.67,63.86 403.97,240.54 31.31,176.7 -95.82,359.87 -266.49,415.33 -170.65,55.45 -366.65,-5.68 -495.2,-130.88 -128.56,-125.19 -194.09,-305.55 -204.49,-484.69 -10.03,-172.84 53.78,-377.6 219.41,-427.99 92.14,-28.03 193.08,0.66 276.66,48.51 155.58,89.06 272.49,252.76 282.05,431.77 9.55,179.01 -101.51,364.35 -272.06,419.59 -62.71,20.3 -132.43,23.01 -193.93,-0.73 -130.96,-50.55 -191.1,-201.5 -215.24,-339.79 -25.97,-148.75 -14.35,-328.63 110.86,-413.04 102.51,-69.11 249.19,-42.04 342.95,38.55 93.75,80.58 141.98,202.88 164.27,324.48 39.2,213.95 4.63,445.6 -118.81,624.69 -99.38,144.17 -259.88,249.78 -434.39,273.65 -169.16,23.15 -353.67,-109.89 -456.11,-234.89 -94.77,-115.63 -154.41,-262.63 -129.16,-412.9 20.7,-123.17 97.87,-236.07 230.92,-247.61 154.63,-13.41 306.74,99.95 402.42,210.64 91.81,106.2 160.7,240.42 155.58,380.72 -6.89,188.61 -151.17,340.85 -321.42,403.77 -177.46,65.59 -371.07,-7.6 -498.62,-137.82 -150,-153.15 -197.99,-368.75 -147.45,-574.61 4.59,-18.68 9.84,-37.21 15.64,-55.55 34.88,-110.38 83.67,-156.54 164.83,-231.62"
         style="fill:none;stroke:#0d101f;stroke-width:10;stroke-linecap:round;stroke-linejoin:miter;stroke-miterlimit:10;stroke-dasharray:none;stroke-opacity:1"
         id="path222" />
      <path
         d="m 3634.35,3283.35 c -3.24,17.9 -7.1,35.72 -15.28,51.91 -18.83,37.24 -58.72,61.33 -97.14,73.94 -30.66,10.06 -73.9,21 -99.91,-5.19 -2.93,-2.94 -5.51,-6.35 -6.78,-10.3 -2.64,-8.27 1.05,-17.52 7.06,-23.78 6.01,-6.26 14.02,-10.15 21.85,-13.9 -10.74,-4.67 -19.14,-15.09 -20.02,-26.76 -1.23,-16.36 13.73,-28.65 26.76,-35.42 -5.55,-7.78 -12.6,-15.39 -12.39,-25.68 0.22,-10.85 9.12,-19.98 19.23,-23.91 10.11,-3.94 21.29,-3.76 32.11,-3.52 0.92,0.02 30.92,-52.58 31.3,-59.53 1.45,-26.16 -10.94,-59.39 -17.94,-84.39 -11.49,-41.02 -34.5,-102 2.2,-138.36 14.25,-14.12 35.26,-18.4 55.03,-21.79 24.83,-4.25 53.61,-7.02 72.1,10.09 16.39,15.17 18.08,40.1 18.33,62.44 0.55,49.28 -0.49,98.62 -4.43,147.76 -3.36,41.95 -4.65,85.24 -12.08,126.39"
         style="fill:#ef7888;fill-opacity:1;fill-rule:nonzero;stroke:none"
         id="path224" />
      <path
         d="m 3488.44,3227.61 c -1.48,-45.71 -1.34,-96.23 28.77,-130.64 14.63,-16.73 34.97,-27.69 49.6,-44.43 23.33,-26.71 29.08,-64.35 30.08,-99.81 2.76,-97.75 -37.34,-194.9 -121.84,-249.58 -83.05,-53.75 -181.89,-9.87 -261.13,-51.85 -77.35,-40.97 -116.59,-134.89 -143.43,-213.16 -33.28,-97.06 -69.65,-201.13 -158.52,-261.94 -99.56,-68.12 -265.17,-61.93 -374.58,-24.91 -46.35,15.68 -91.82,38.11 -140.74,39.2 -51.22,1.13 -99.67,-21.3 -145.98,-43.25 -58.69,-27.82 -120.36,-56.33 -174.61,-91.93 -53.82,-35.31 -92.96,-88.81 -146.4,-124.77 -44.81,-30.15 -97.47,-47.4 -141.35,-78.9 -43.87,-31.5 -79.34,-85.28 -65.32,-137.44 5.29,-19.69 17.03,-36.9 27.92,-54.12 33.03,-52.26 59.55,-121.28 26.24,-173.35 -19.31,-30.19 -53.97,-46.13 -81.72,-68.79 -46.12,-37.67 -73.69,-97.04 -72.7,-156.58 0.31,-18.74 3.41,-37.77 11.97,-54.45 44.36,-86.46 174.34,-77.1 216.7,-172.16 52.21,-117.148 20.3,-278.16 -50.11,-380.07 -90.25,-130.66 -258.86,-202.25 -415.54,-176.438 -60.34,9.938 -117.33,32.93 -172.05,59.559 -24.5,11.918 -48.43,26.961 -74.01,34.91 -29.07,9.051 -52.63,10.187 -75.08,34.629 -9.11,9.91 -16.58,22.402 -16.26,35.859 0.71,29.16 37.51,45.11 65.93,38.571 45.41,-10.45 75.89,-63.481 62.08,-107.981 -11.21,-36.098 -45.76,-61.019 -82.14,-71.25 -36.38,-10.238 -74.92,-8.269 -112.689,-6.648 -37.758,1.629 -76.465,2.718 -112.371,-9.09 -38.172,-12.551 -70.129,-38.672 -101.121,-64.242"
         style="fill:none;stroke:#0d101f;stroke-width:10;stroke-linecap:round;stroke-linejoin:miter;stroke-miterlimit:10;stroke-dasharray:none;stroke-opacity:1"
         id="path226" />
      <path
         d="m 2066.19,2072.5 c 75.88,57.81 113.99,150.87 165.79,230.96 71.19,110.09 170.81,198.29 269.14,285"
         style="fill:none;stroke:#040606;stroke-width:10;stroke-linecap:butt;stroke-linejoin:miter;stroke-miterlimit:10;stroke-dasharray:none;stroke-opacity:1"
         id="path228" />
      <path
         d="m 1934.08,2154.09 c -13.83,30.07 -36.92,51.52 -66.83,65.33 -11.93,5.51 -25.77,10.29 -37.89,5.24 -5.53,-2.32 -10.06,-6.46 -14.3,-10.7 -25.21,-25.13 -44.21,-55.75 -61.84,-86.67 -37.88,-66.42 -81.69,-134.73 -90.26,-211.54 -7.96,-71.27 4.11,-109.89 25.34,-177.38 5.96,-18.95 26.49,-68.56 34.85,-86.5 8.24,-17.66 14.65,-33.67 20.09,-52.59 0.58,-2.03 1.18,-4.11 2.41,-5.83 1.53,-2.12 3.88,-3.52 6.27,-4.6 3.5,-1.6 7.56,-2.67 11.19,-1.38 4.32,1.54 6.88,5.98 8.44,10.29 8.08,22.47 -0.85,53.65 -7.37,75.59 -2.11,7.07 -5.31,13.92 -7.82,20.86 -3.23,8.86 -4.96,22.42 -11.46,29.26 6.12,-6.44 17.55,-5.15 23.97,1.01 6.41,6.15 8.56,15.64 8.33,24.52 10.94,-3.25 23.37,2.48 29.51,12.09 3.98,6.23 5.51,13.74 5.08,21.07 -0.47,7.93 -8.87,16.86 -0.55,12.98 20.18,-9.38 31.03,-1.32 38.48,9.87 5.21,7.8 8.42,24.53 9.38,33.87 1.51,14.57 -0.29,29.47 -5.21,43.27 -0.79,2.21 -1.78,4.56 -3.76,5.83 -4.86,3.13 -10.77,-2.21 -13.55,-7.27 -2.97,-5.4 -5.24,-11.18 -6.74,-17.16 -0.44,11.2 -2.15,22.36 -5.07,33.18 -2.75,10.17 -8.37,19.35 -11.24,29.29 -2.81,9.77 4.86,16.03 10.4,23.49 6.52,8.77 13.09,17.51 20.31,25.73 10.4,11.85 22,22.56 32.7,34.13 13.39,14.48 27.62,28.34 38.83,44.55 10.36,14.98 29.77,35.82 32.97,53.76 2.35,13.14 -6.02,27.62 -14.66,46.41"
         style="fill:#ef7888;fill-opacity:1;fill-rule:nonzero;stroke:none"
         id="path230" />
      <path
         d="m 3495.79,3283.13 c 4.83,0 9.65,0 14.48,0"
         style="fill:none;stroke:#0d101f;stroke-width:10;stroke-linecap:round;stroke-linejoin:miter;stroke-miterlimit:10;stroke-dasharray:none;stroke-opacity:1"
         id="path232" />
      <path
         d="m 3497.86,3322.41 c 6.21,1.38 12.41,2.76 18.61,4.14"
         style="fill:none;stroke:#0d101f;stroke-width:10;stroke-linecap:round;stroke-linejoin:miter;stroke-miterlimit:10;stroke-dasharray:none;stroke-opacity:1"
         id="path234" />
      <path
         d="m 3497.89,3370.2 c 5.52,-0.68 11.03,-1.37 16.54,-2.05"
         style="fill:none;stroke:#0d101f;stroke-width:10;stroke-linecap:round;stroke-linejoin:miter;stroke-miterlimit:10;stroke-dasharray:none;stroke-opacity:1"
         id="path236" />
      <path
         d="m 2844.22,3200.11 c 8.05,-8.68 20.18,-13.4 31.98,-12.43 11.8,0.97 23,7.6 29.53,17.47"
         style="fill:none;stroke:#0d101f;stroke-width:10;stroke-linecap:round;stroke-linejoin:miter;stroke-miterlimit:10;stroke-dasharray:none;stroke-opacity:1"
         id="path238" />
      <path
         d="m 2697.8,3509.51 c 0,-58.8 -46.28,-106.47 -103.37,-106.47 -57.09,0 -103.37,47.67 -103.37,106.47 0,58.8 46.28,106.47 103.37,106.47 57.09,0 103.37,-47.67 103.37,-106.47"
         style="fill:#1f1d1c;fill-opacity:1;fill-rule:nonzero;stroke:none"
         id="path240" />
      <path
         d="m 1814.99,2226.08 c 38.69,-0.24 76.96,-17.62 102.61,-46.57 25.64,-28.97 38.26,-69.05 33.82,-107.48"
         style="fill:none;stroke:#040606;stroke-width:10;stroke-linecap:butt;stroke-linejoin:miter;stroke-miterlimit:10;stroke-dasharray:none;stroke-opacity:1"
         id="path242" />
      <path
         d="m 1812.91,1927.73 c -4.24,7 -8.02,14.29 -11.3,21.8"
         style="fill:none;stroke:#0d101f;stroke-width:10;stroke-linecap:round;stroke-linejoin:miter;stroke-miterlimit:10;stroke-dasharray:none;stroke-opacity:1"
         id="path244" />
      <path
         d="m 1747.7,1721.02 c -3.78,8.41 -10.6,21.94 -12.5,30.95"
         style="fill:none;stroke:#0d101f;stroke-width:10;stroke-linecap:butt;stroke-linejoin:miter;stroke-miterlimit:10;stroke-dasharray:none;stroke-opacity:1"
         id="path246" />
      <path
         d="m 1777.2,1749 c -1.54,4.4 -9.34,28.66 -10.88,33.05"
         style="fill:none;stroke:#0d101f;stroke-width:10;stroke-linecap:butt;stroke-linejoin:miter;stroke-miterlimit:10;stroke-dasharray:none;stroke-opacity:1"
         id="path248" />
      <path
         d="m 1810.12,1792.61 c -6.15,8.88 -9.87,19.44 -10.66,30.22"
         style="fill:none;stroke:#0d101f;stroke-width:10;stroke-linecap:butt;stroke-linejoin:miter;stroke-miterlimit:10;stroke-dasharray:none;stroke-opacity:1"
         id="path250" />
      <path
         d="m 1829.55,1864.07 c 1.29,-9.52 2.58,-19.03 3.86,-28.55"
         style="fill:none;stroke:#0d101f;stroke-width:10;stroke-linecap:butt;stroke-linejoin:miter;stroke-miterlimit:10;stroke-dasharray:none;stroke-opacity:1"
         id="path252" />
      <path
         d="m 6008.99,2203.95 c 23.98,-27.01 41.18,-59.97 49.64,-95.08"
         style="fill:none;stroke:#0d101f;stroke-width:10;stroke-linecap:round;stroke-linejoin:miter;stroke-miterlimit:10;stroke-dasharray:none;stroke-opacity:1"
         id="path254" />
      <path
         d="M 6071.03,1988.96 V 1753.14"
         style="fill:none;stroke:#0d101f;stroke-width:10;stroke-linecap:round;stroke-linejoin:miter;stroke-miterlimit:10;stroke-dasharray:none;stroke-opacity:1"
         id="path256" />
      <path
         d="m 4466.31,2213.41 c 20.64,-12.24 36.78,-31.89 44.79,-54.51"
         style="fill:none;stroke:#0d101f;stroke-width:10;stroke-linecap:round;stroke-linejoin:miter;stroke-miterlimit:10;stroke-dasharray:none;stroke-opacity:1"
         id="path258" />
      <path
         d="m 1515.75,2209.14 c -48.75,-15.39 -91.77,-32.77 -119.43,-75.76"
         style="fill:none;stroke:#0d101f;stroke-width:10;stroke-linecap:round;stroke-linejoin:miter;stroke-miterlimit:10;stroke-dasharray:none;stroke-opacity:1"
         id="path260" />
      <path
         d="M 1358.63,2022.05 V 1852.47"
         style="fill:none;stroke:#0d101f;stroke-width:10;stroke-linecap:round;stroke-linejoin:miter;stroke-miterlimit:10;stroke-dasharray:none;stroke-opacity:1"
         id="path262" />
      <path
         d="m 5461.2,4056.73 v 0 c -67.52,0 -122.25,54.73 -122.25,122.24 v 122.24 h 244.49 v -122.24 c 0,-67.51 -54.73,-122.24 -122.24,-122.24"
         style="fill:#86d5bc;fill-opacity:1;fill-rule:nonzero;stroke:none"
         id="path264" />
      <path
         d="m 5583.44,3812.24 h -244.49 v 122.25 c 0,67.51 54.73,122.24 122.25,122.24 v 0 c 67.51,0 122.24,-54.73 122.24,-122.24 v -122.25"
         style="fill:#86d5bc;fill-opacity:1;fill-rule:nonzero;stroke:none"
         id="path266" />
      <path
         d="M 5314.94,4301.21 H 5614.1"
         style="fill:none;stroke:#130a0a;stroke-width:10;stroke-linecap:round;stroke-linejoin:miter;stroke-miterlimit:10;stroke-dasharray:none;stroke-opacity:1"
         id="path268" />
      <path
         d="m 5363.57,4173.72 v -6.27 c 0,-53.91 43.71,-97.62 97.63,-97.62 v 0 c 53.92,0 97.62,43.71 97.62,97.62 v 6.27 h -195.25"
         style="fill:#040606;fill-opacity:1;fill-rule:nonzero;stroke:none"
         id="path270" />
      <path
         d="m 5569.89,3826.97 c -9.02,31.99 -54.19,69.55 -108.69,69.55 v 0 c -54.51,0 -99.68,-37.56 -108.7,-69.55 h 217.39"
         style="fill:#040606;fill-opacity:1;fill-rule:nonzero;stroke:none"
         id="path272" />
      <path
         d="M 5314.94,3825.45 H 5614.1"
         style="fill:none;stroke:#130a0a;stroke-width:10;stroke-linecap:round;stroke-linejoin:miter;stroke-miterlimit:10;stroke-dasharray:none;stroke-opacity:1"
         id="path274" />
      <path
         d="m 3042.2,4124.04 c 0,-184.27 -149.37,-333.65 -333.65,-333.65 -184.26,0 -333.64,149.38 -333.64,333.65 0,184.27 149.38,333.65 333.64,333.65 184.28,0 333.65,-149.38 333.65,-333.65"
         style="fill:#86d5bc;fill-opacity:1;fill-rule:nonzero;stroke:none"
         id="path276" />
      <path
         d="m 2841.21,4359.88 -132.66,-235.84 184.82,1.96"
         style="fill:none;stroke:#4a927f;stroke-width:10;stroke-linecap:round;stroke-linejoin:miter;stroke-miterlimit:10;stroke-dasharray:none;stroke-opacity:1"
         id="path278" />
      <path
         d="m 2707.21,4427.32 v -44.67"
         style="fill:none;stroke:#0d101f;stroke-width:10;stroke-linecap:round;stroke-linejoin:miter;stroke-miterlimit:10;stroke-dasharray:none;stroke-opacity:1"
         id="path280" />
      <path
         d="m 2707.21,3866.33 v -44.67"
         style="fill:none;stroke:#0d101f;stroke-width:10;stroke-linecap:round;stroke-linejoin:miter;stroke-miterlimit:10;stroke-dasharray:none;stroke-opacity:1"
         id="path282" />
      <path
         d="m 2404.38,4124.49 h 44.67"
         style="fill:none;stroke:#0d101f;stroke-width:10;stroke-linecap:round;stroke-linejoin:miter;stroke-miterlimit:10;stroke-dasharray:none;stroke-opacity:1"
         id="path284" />
      <path
         d="m 2965.38,4124.49 h 44.66"
         style="fill:none;stroke:#0d101f;stroke-width:10;stroke-linecap:round;stroke-linejoin:miter;stroke-miterlimit:10;stroke-dasharray:none;stroke-opacity:1"
         id="path286" />
      <path
         d="m 2493.08,4338.62 31.59,-31.58"
         style="fill:none;stroke:#0d101f;stroke-width:10;stroke-linecap:round;stroke-linejoin:miter;stroke-miterlimit:10;stroke-dasharray:none;stroke-opacity:1"
         id="path288" />
      <path
         d="m 2889.76,3941.94 31.59,-31.59"
         style="fill:none;stroke:#0d101f;stroke-width:10;stroke-linecap:round;stroke-linejoin:miter;stroke-miterlimit:10;stroke-dasharray:none;stroke-opacity:1"
         id="path290" />
      <path
         d="m 2493.08,3910.35 31.59,31.59"
         style="fill:none;stroke:#0d101f;stroke-width:10;stroke-linecap:round;stroke-linejoin:miter;stroke-miterlimit:10;stroke-dasharray:none;stroke-opacity:1"
         id="path292" />
      <path
         d="m 2889.76,4307.04 31.59,31.58"
         style="fill:none;stroke:#0d101f;stroke-width:10;stroke-linecap:round;stroke-linejoin:miter;stroke-miterlimit:10;stroke-dasharray:none;stroke-opacity:1"
         id="path294" />
      <path
         d="m 5392.45,2035.93 c 16.66,11.22 69.22,36.08 104.88,43.12"
         style="fill:none;stroke:#0d101f;stroke-width:10;stroke-linecap:round;stroke-linejoin:miter;stroke-miterlimit:10;stroke-dasharray:none;stroke-opacity:1"
         id="path296" />
      <path
         d="m 5334.1,2090.59 c 34.32,29.49 85.8,44.78 133.19,55.1"
         style="fill:none;stroke:#0d101f;stroke-width:10;stroke-linecap:round;stroke-linejoin:miter;stroke-miterlimit:10;stroke-dasharray:none;stroke-opacity:1"
         id="path298" />
      <path
         d="m 5349.04,2052.3 c 40.75,31.5 84.47,46.94 138.44,62.41"
         style="fill:none;stroke:#0d101f;stroke-width:10;stroke-linecap:round;stroke-linejoin:miter;stroke-miterlimit:10;stroke-dasharray:none;stroke-opacity:1"
         id="path300" />
      <path
         d="m 5115.3,1764.46 c -16.81,25.23 -25.58,55.72 -24.74,86.04"
         style="fill:none;stroke:#0d101f;stroke-width:10;stroke-linecap:round;stroke-linejoin:miter;stroke-miterlimit:10;stroke-dasharray:none;stroke-opacity:1"
         id="path302" />
    </g>
  </g>
</svg>
