<svg width="287" height="330" viewBox="0 0 287 330" fill="none" xmlns="http://www.w3.org/2000/svg">
<path d="M30.0553 295.437C70.1813 341.521 216.827 341.521 256.906 295.437C297.031 249.3 297.031 80.6868 256.906 34.6031C216.827 -11.5344 70.1813 -11.5344 30.0553 34.6031C-10.0184 80.6868 -10.0184 249.3 30.0553 295.437Z" fill="#35A899" fill-opacity="0.16"/>
<path d="M180.49 185.844C195.359 186.307 221.151 209.787 229.427 227.917C231.802 233.089 230.469 239.177 226.635 243.021L217.771 251.906C193.438 276.323 138.953 261.203 96.1667 218.276C53.3751 175.344 38.3074 120.682 62.6407 96.2709L71.4949 87.3803C75.3334 83.5313 81.4063 82.198 86.5626 84.573C104.62 92.8803 128.037 118.755 128.495 133.677C128.63 141.505 107.073 155.172 107.073 155.172C87.5521 174.75 139.547 226.906 159.057 207.328C159.063 207.339 172.682 185.708 180.49 185.844Z" fill="#434A5C"/>
<path d="M128.5 133.682C128.537 137.563 123.245 142.87 117.927 147.224C117.995 147.021 117.99 146.88 117.984 146.75C117.49 130.464 91.9115 102.151 72.2032 93.1199C70.4792 92.3282 68.7813 91.9376 67.0105 91.8907L71.5105 87.3803C75.3438 83.5313 81.4167 82.198 86.573 84.573C104.635 92.8855 128.042 118.76 128.5 133.682Z" fill="#EEFBFF"/>
<path d="M180.49 185.844C176.62 185.807 171.333 191.115 166.99 196.448C167.193 196.391 167.328 196.391 167.464 196.396C183.693 196.896 211.917 222.552 220.917 242.333C221.714 244.052 222.094 245.766 222.141 247.542L226.641 243.026C230.474 239.182 231.813 233.089 229.432 227.922C221.156 209.787 195.365 186.297 180.49 185.844Z" fill="#EEFBFF"/>
<path d="M235.656 105.708C235.656 127.104 214.453 144.479 188.234 144.479C186.5 144.479 184.828 144.422 183.156 144.302C174.021 148.432 160.578 152.151 143.62 150.292C143.62 150.292 152.276 144.839 155.979 134.052C146.667 126.984 140.812 116.917 140.812 105.708C140.812 84.3177 162.073 67 188.234 67C214.453 67 235.656 84.3177 235.656 105.708Z" fill="#FB565A"/>
<path d="M167.37 103.651C167.896 102.927 168.156 102.203 168.156 101.469C168.156 100.729 167.875 100.109 167.318 99.5834C166.755 99.073 166.052 98.8126 165.198 98.8126C163.693 98.8126 162.448 99.5834 161.453 101.125L158.964 99.6824C159.771 98.474 160.651 97.5626 161.62 96.948C162.589 96.3386 163.833 96.0261 165.365 96.0261C166.896 96.0261 168.229 96.5105 169.385 97.4845C170.537 98.4532 171.109 99.7813 171.109 101.469C171.109 102.417 170.865 103.318 170.375 104.177C169.885 105.031 168.99 106.141 167.677 107.49L163.38 111.875H171.682V114.849H159.167V112.219L164.719 106.62C165.969 105.354 166.854 104.37 167.37 103.651Z" fill="white"/>
<path d="M181.917 107.406V104.036H184.849V107.406H187.052V110.214H184.849V114.844H181.917V110.214H174.057V107.484L180.787 96.4688H184.167L177.537 107.406H181.917Z" fill="white"/>
<path d="M200.151 93.5261H202.771L191.432 117.917H188.807L200.151 93.5261Z" fill="white"/>
</svg>
