<svg width="287" height="288" viewBox="0 0 287 288" fill="none" xmlns="http://www.w3.org/2000/svg">
<path d="M30.0234 257.504C70.1068 297.671 216.596 297.671 256.633 257.504C296.716 217.29 296.716 70.3268 256.633 30.1602C216.596 -10.0534 70.1068 -10.0534 30.0234 30.1602C-10.0078 70.3268 -10.0078 217.29 30.0234 257.504Z" fill="#35A899"/>
<path d="M172.716 172.176C187.586 172.639 213.378 196.119 221.654 214.249C224.029 219.421 222.695 225.509 218.862 229.353L209.997 238.238C185.664 262.655 131.18 247.535 88.3933 204.608C45.6016 161.676 30.5339 107.014 54.8673 82.6029L63.7214 73.7123C67.56 69.8633 73.6329 68.53 78.7891 70.905C96.8464 79.2123 120.263 105.087 120.721 120.009C120.857 127.837 99.2995 141.504 99.2995 141.504C79.7787 161.082 131.773 213.238 151.284 193.66C151.289 193.671 164.909 172.04 172.716 172.176Z" fill="#434A5C"/>
<path d="M120.727 120.014C120.763 123.895 115.471 129.202 110.154 133.556C110.221 133.353 110.216 133.212 110.211 133.082C109.716 116.796 84.1381 88.4831 64.4298 79.4518C62.7058 78.6602 61.0079 78.2695 59.2371 78.2227L63.7371 73.7123C67.5704 69.8633 73.6433 68.53 78.7996 70.905C96.8621 79.2175 120.268 105.092 120.727 120.014Z" fill="#EEFBFF"/>
<path d="M172.716 172.176C168.847 172.139 163.56 177.447 159.216 182.78C159.419 182.723 159.555 182.723 159.69 182.728C175.919 183.228 204.143 208.884 213.143 228.665C213.94 230.384 214.32 232.098 214.367 233.874L218.867 229.358C222.701 225.514 224.039 219.421 221.659 214.254C213.383 196.119 187.591 172.629 172.716 172.176Z" fill="#EEFBFF"/>
<path d="M227.883 92.0404C227.883 113.436 206.68 130.811 180.461 130.811C178.727 130.811 177.055 130.754 175.383 130.634C166.247 134.764 152.805 138.483 135.846 136.624C135.846 136.624 144.503 131.171 148.206 120.384C138.893 113.316 133.039 103.249 133.039 92.0404C133.039 70.6497 154.299 53.332 180.461 53.332C206.68 53.332 227.883 70.6497 227.883 92.0404Z" fill="#FB565A"/>
<path d="M159.596 89.9832C160.122 89.2592 160.383 88.5352 160.383 87.8009C160.383 87.0613 160.102 86.4415 159.544 85.9154C158.982 85.405 158.279 85.1446 157.425 85.1446C155.919 85.1446 154.675 85.9154 153.68 87.4571L151.19 86.0144C151.997 84.8061 152.878 83.8946 153.846 83.28C154.815 82.6707 156.06 82.3582 157.591 82.3582C159.122 82.3582 160.456 82.8425 161.612 83.8165C162.763 84.7852 163.336 86.1134 163.336 87.8009C163.336 88.7488 163.091 89.6498 162.602 90.5092C162.112 91.3634 161.216 92.4727 159.904 93.8217L155.607 98.2071H163.909V101.181H151.393V98.5509L156.945 92.9519C158.195 91.6863 159.081 90.7019 159.596 89.9832Z" fill="white"/>
<path d="M174.143 93.7383V90.3685H177.076V93.7383H179.279V96.5456H177.076V101.176H174.143V96.5456H166.284V93.8164L173.013 82.8008H176.393L169.763 93.7383H174.143Z" fill="white"/>
<path d="M192.378 79.8582H194.997L183.659 104.249H181.034L192.378 79.8582Z" fill="white"/>
</svg>
