<svg width="177" height="176" viewBox="0 0 177 176" fill="none" xmlns="http://www.w3.org/2000/svg">
<mask id="mask0_1_245" style="mask-type:luminance" maskUnits="userSpaceOnUse" x="44" y="117" width="41" height="59">
<path d="M44.2937 117.559H84.4437V175.231H44.2937V117.559Z" fill="white"/>
</mask>
<g mask="url(#mask0_1_245)">
<path d="M59.5396 119.98C59.5396 119.98 52.4885 120.989 49.2799 129.411C46.0647 137.842 45.2871 166.329 46.3065 168.842C47.3325 171.297 77.6868 175.13 81.3855 172.81C85.0842 170.481 84.6006 132.933 78.569 124.822C72.6288 116.71 68.2505 117.845 68.2505 117.845L59.5396 119.98Z" fill="#2D8196"/>
</g>
<path d="M78.5167 81.7511L61.977 80.7424C61.977 80.7424 51.0769 100.992 55.3115 110.297C56.6707 113.256 58.9122 115.332 61.5849 116.651C60.9053 118.349 59.8336 121.241 60.1734 122.561C60.6635 124.511 64.7478 129.731 68.3027 129.411C71.8511 129.1 73.0209 128.218 72.9686 125.83C72.9228 124.259 72.8248 120.989 72.7791 118.156C74.8179 117.778 76.5693 116.962 77.837 115.895C82.6532 111.49 83.9144 100.866 83.9144 100.866C83.9144 100.866 85.7638 100.807 84.7901 98.5372C83.8229 96.4022 78.5167 81.7511 78.5167 81.7511Z" fill="#F99C8C"/>
<path d="M59.5395 56.1558C59.5395 56.1558 64.2642 68.7979 65.5254 68.7979C66.7932 68.7979 65.7215 56.408 65.7215 56.408C65.7215 56.408 72.9686 57.3494 74.4324 55.2144C75.8897 53.0709 79.1506 23.5838 75.8897 21.5076C72.6288 19.3642 7.97319 14.968 3.64059 20.1207C-0.691999 25.0296 -0.881509 54.5167 2.71918 56.6602C6.31987 58.7364 59.5395 56.1558 59.5395 56.1558Z" fill="#D9EEF4"/>
<path d="M17.1153 33.2C17.0173 33.2 16.9258 33.2 16.7755 33.2C16.7755 33.2 12.9788 33.2 14.0505 37.4112C15.1222 41.6308 18.0433 39.7396 18.7686 37.6634C19.4548 35.7132 18.7229 33.326 17.1153 33.2ZM37.0662 33.2C36.9681 33.2 36.8701 33.2 36.7264 33.2C36.7264 33.2 32.9296 33.2 34.0013 37.4112C35.073 41.6308 37.9876 39.7396 38.7195 37.6634C39.3991 35.7132 38.6215 33.326 37.0662 33.2ZM62.6108 33.2C62.5128 33.2 62.4148 33.2 62.2645 33.2C62.2645 33.2 58.4743 33.2 59.5394 37.4112C60.6112 41.6308 63.5322 39.7396 64.2641 37.6634C64.9438 35.7132 64.1661 33.326 62.6108 33.2Z" fill="#2D8196"/>
<path d="M61.2453 69.7982C49.0839 70.0504 48.8879 85.8362 48.8879 85.8362C48.8879 85.8362 45.5813 88.9211 45.1434 93.5106C44.7513 98.1001 52.8284 111.558 55.3116 113.314C57.7883 115.08 60.3696 109.86 60.4153 107.657C60.4676 105.455 55.7952 102.816 57.8406 99.4198C59.886 96.0239 62.8528 98.285 63.6305 100.992C64.4081 103.698 66.4993 100.992 66.4993 100.992C66.4993 100.992 63.9703 87.0971 65.8654 86.3406C67.8128 85.6513 79.007 86.6516 80.2682 84.1383C81.5359 81.5577 84.3067 76.8422 80.2224 73.6984C76.8113 69.2939 68.7865 69.9243 61.2453 69.7982Z" fill="black" stroke="black" stroke-width="0.29153" stroke-linecap="round" stroke-linejoin="round"/>
<path d="M51.7566 132.118C51.7108 132.185 51.7108 132.118 51.7566 132.118C51.5605 132.118 51.4168 132.311 51.4168 132.496C51.4168 132.496 50.8809 137.279 50.5934 142.81C50.3451 148.341 50.2993 154.628 51.5605 157.898C52.4885 161.672 55.4553 167.086 55.4553 167.086C55.5076 167.212 55.6513 167.27 55.7494 167.27C55.8474 167.27 55.9912 167.144 56.0369 167.018C56.0892 166.892 56.0892 166.707 55.9911 166.581C55.9911 166.581 53.0701 161.109 52.1944 157.587V157.528C51.1227 154.696 51.0312 148.341 51.3187 142.869C51.5605 137.338 52.0964 132.622 52.0964 132.622C52.0964 132.496 52.0964 132.37 51.9984 132.244C51.9069 132.118 51.8546 132.185 51.7566 132.118ZM59.7879 132.807C59.5918 132.807 59.4481 133.001 59.4481 133.253C59.4481 133.253 59.3958 137.405 59.6899 142.373C60.0297 147.399 60.7093 153.25 62.2646 156.957C63.8264 161.672 66.4534 164.572 66.4534 164.572C66.5514 164.69 66.6952 164.69 66.7932 164.631C66.8912 164.572 66.9893 164.446 67.035 164.32C67.0808 164.194 67.035 164.001 66.937 163.875C66.937 163.875 64.4538 161.109 62.9507 156.578C62.9507 156.578 62.9507 156.578 62.9507 156.52C61.4869 153.056 60.7616 147.215 60.4152 142.247C60.0754 137.279 60.1734 133.185 60.1734 133.185C60.1734 133.059 60.1277 132.933 60.0754 132.874C60.0297 132.807 59.8859 132.807 59.7879 132.807Z" fill="black"/>
<mask id="mask1_1_245" style="mask-type:luminance" maskUnits="userSpaceOnUse" x="104" y="117" width="41" height="59">
<path d="M104.519 117.559H144.669V175.231H104.519V117.559Z" fill="white"/>
</mask>
<g mask="url(#mask1_1_245)">
<path d="M130.188 119.98C130.188 119.98 137.239 120.989 140.454 129.411C143.662 137.842 144.44 166.329 143.421 168.842C142.395 171.297 112.04 175.13 108.342 172.81C104.643 170.481 105.133 132.933 111.165 124.822C117.196 116.71 121.529 117.845 121.529 117.845L130.188 119.98Z" fill="#2D8196"/>
</g>
<path d="M111.21 81.7511L127.757 80.7424C127.757 80.7424 138.65 100.992 134.416 110.297C133.056 113.256 130.821 115.332 128.142 116.651C128.822 118.349 129.894 121.241 129.554 122.561C129.07 124.511 124.979 129.731 121.431 129.411C117.876 129.1 116.706 128.218 116.759 125.83C116.804 124.259 116.902 120.989 116.955 118.156C114.909 117.778 113.158 116.962 111.89 115.895C107.074 111.49 105.813 100.866 105.813 100.866C105.813 100.866 103.963 100.807 104.937 98.5372C105.911 96.4022 111.21 81.7511 111.21 81.7511Z" fill="#F99C8C"/>
<path d="M116.857 38.983C116.857 38.983 112.138 51.6252 110.871 51.6252C109.603 51.6252 110.675 39.2352 110.675 39.2352C110.675 39.2352 103.427 40.185 101.97 38.0416C100.506 35.9065 97.2455 6.41105 100.506 4.33485C103.767 2.19981 168.429 -2.20477 172.755 2.95632C177.088 7.85682 177.284 37.3523 173.683 39.4874C170.083 41.5636 116.857 38.983 116.857 38.983Z" fill="#D9EEF4"/>
<path d="M159.281 16.0355C159.379 16.0355 159.477 16.0355 159.621 16.0355C159.621 16.0355 163.417 16.0355 162.346 20.2468C161.274 24.458 158.353 22.5751 157.627 20.4989C156.948 18.49 157.673 16.0944 159.281 16.0355ZM139.33 16.0355C139.428 16.0355 139.526 16.0355 139.676 16.0355C139.676 16.0355 143.466 16.0355 142.395 20.2468C141.33 24.458 138.408 22.5751 137.677 20.4989C136.997 18.49 137.775 16.0944 139.33 16.0355ZM113.792 16.0355C113.89 16.0355 113.988 16.0355 114.132 16.0355C114.132 16.0355 117.928 16.0355 116.857 20.2468C115.785 24.458 112.864 22.5751 112.138 20.4989C111.452 18.49 112.236 16.0944 113.792 16.0355Z" fill="#2D8196"/>
<path d="M128.482 69.7982C137.049 72.8831 139.676 82.6253 140.742 92.8802C144.296 109.734 130.384 124.074 129.312 107.716C129.26 105.522 133.932 102.875 131.887 99.4787C129.848 96.0828 126.875 98.3523 126.097 101.051C125.319 103.757 123.228 101.051 123.228 101.051C123.228 101.051 125.757 87.1559 123.862 86.3994C121.915 85.7102 110.727 86.7188 109.459 84.1971C108.198 81.625 105.133 68.9829 109.263 65.7719C114.177 60.7453 124.496 68.2264 128.482 69.7982Z" fill="black" stroke="black" stroke-width="0.29153" stroke-linecap="round" stroke-linejoin="round"/>
<path d="M137.971 132.118C138.167 132.118 138.31 132.311 138.31 132.496C138.31 132.496 138.846 137.279 139.14 142.81C139.382 148.341 139.428 154.628 138.167 157.898C137.239 161.672 134.272 167.086 134.272 167.086C134.226 167.212 134.076 167.27 133.978 167.27C133.834 167.27 133.736 167.144 133.69 167.018C133.638 166.892 133.638 166.707 133.736 166.581C133.736 166.581 136.657 161.109 137.533 157.587V157.528C138.604 154.696 138.702 148.341 138.408 142.869C138.167 137.338 137.631 132.622 137.631 132.622C137.631 132.496 137.631 132.37 137.729 132.244C137.827 132.118 137.873 132.185 137.971 132.118ZM129.893 132.807C129.946 132.807 129.946 132.807 129.893 132.807C130.09 132.807 130.233 133.001 130.233 133.253C130.233 133.253 130.286 137.405 129.992 142.373C129.652 147.399 128.972 153.25 127.41 156.957C125.855 161.672 123.228 164.572 123.228 164.572C123.13 164.69 122.986 164.69 122.888 164.631C122.79 164.572 122.692 164.446 122.646 164.32C122.594 164.194 122.646 164.001 122.744 163.875C122.744 163.875 125.221 161.109 126.731 156.578C126.731 156.578 126.731 156.578 126.731 156.52C128.194 153.056 128.92 147.215 129.26 142.247C129.599 137.279 129.508 133.185 129.508 133.185C129.508 133.059 129.554 132.933 129.599 132.874C129.75 132.874 129.848 132.807 129.893 132.807Z" fill="black"/>
</svg>
